<mxfile host="app.diagrams.net" modified="2023-09-20T11:28:42.332Z" agent="Mozilla/5.0 (X11; Linux x86_64) AppleWebKit/537.36 (KHTML, like Gecko) Chrome/116.0.0.0 Safari/537.36" etag="u7iFgY2NwM4lGWjp7CIE" version="21.7.5" type="github">
  <diagram name="Page-1" id="vnA3mJeIorke7yWJmMwq">
    <mxGraphModel dx="1364" dy="771" grid="1" gridSize="10" guides="1" tooltips="1" connect="1" arrows="1" fold="1" page="1" pageScale="1" pageWidth="827" pageHeight="1169" math="0" shadow="0">
      <root>
        <mxCell id="0" />
        <mxCell id="1" parent="0" />
        <mxCell id="f-6WJSINS0-AY50c59SQ-1" value="" style="shape=image;verticalLabelPosition=bottom;labelBackgroundColor=default;verticalAlign=top;aspect=fixed;imageAspect=0;image=data:image/png,iVBORw0KGgoAAAANSUhEUgAAAbAAAAH5CAYAAADgGWuOAAAABHNCSVQICAgIfAhkiAAAABl0RVh0U29mdHdhcmUAZ25vbWUtc2NyZWVuc2hvdO8Dvz4AAABIaVRYdENyZWF0aW9uIFRpbWUAAAAAANGB0YDQtdC00LAsIDIwLiDRgdC10L/RgtC10LzQsdCw0YAgMjAyMy4gMTM6Mjg6MzggQ0VTVDEQtvMAACAASURBVHic7N15mB1Xfef/9zlVdZfeF7W6tbcky9oXL5J3vIGJPRiSYCCGQGaGzUAcAskz5ElmfsmE5IGQTALJg535Jb+sT4jBcYLBgI2N91WSte9La2ltrd6X23erOuf3R9W93a21cWRLdfV9+WlJbt2uW7eqdD5nq1PKBtYihBBCxIy+2DsghBBCvBUSYEIIIWJJAkwIIUQsSYAJIYSIJQkwIYQQsSQBJoQQIpYkwIQQQsSSBJgQQohYkgATQggRSxJgQgghYkkCTAghRCxJgAkhhIglCTAhhBCxJAEmhBAiliTAhBBCxJIEmBBCiFiSABNCCBFLEmBCCCFiSQJMCCFELEmACSGEiCUJMCGEELEkASaEECKWJMCEEELEkgSYEEKIWJIAE0IIEUsSYEIIIWJJAkwIIUQsSYAJIYSIJQkwIYQQsSQBJoQQIpYkwIQQQsSSBJgQQohYkgATQggRSxJgQgghYkkCTAghRCxJgAkhhIglCTAhhBCxJAEmhBAiliTAhBBCxJIEmBBCiFiSABNCCBFLEmBCCCFiSQJMCCFELEmACSGEiCUJMCGEELEkASaEECKWJMCEEELEkgSYEEKIWJIAE0IIEUsSYEIIIWJJAkwIIUQsSYAJIYSIJQkwIYQQsSQBJoQQIpYkwIQQQsSSBJgQQohYkgATQggRSxJgQgghYkkCTAghRCxJgAkhhIglCTAhhBCxJAEmhBAiliTAhBBCxJIEmBBCiFiSABNCCBFLEmBCCCFiSQJMCCFELEmACSGEiCUJMCGEELEkASaEECKWJMCEEELEkgSYEEKIWHIv9g5cEBqw0ZcQF5m1FqXUuV+kTvldXF4sGGPQ6jxtiAtwnZjAoJRCVeDFFusAC0zAyMgImUwGExiMNRd7l8RlzhiDo53wf86bYWd4wbmCz0oNrVIExuB5LkEQnPe1P/d1MuFnoba2lrr6uoqs4Mc6wBzX4dVXXuXhv34YCE+0sQaldAXWNUQcKKXGyglrQZ2lAIqYSYSSXMsVZtw1YctXy9mvEot9C3WX8AeMMTzwwAO87973SYBdirTWJJPJsMvGlk52BZ4pEQsKhcXiOi5Fv3j+LiI47/V63u5IETtKK4IgwNEOgTHo85xjC2+pBW6sIZFI4hcDXMd5azt7CauIADPG4nkODz74IE1NTRXZ1ytiRIXXpTV2cl09tlQPP1cBJdd0pbHWorWOWurnP79jFZ3zB1lPTy8PP/wwhUIerRSu60gL7JJlLa7rsmDBAqa2TsUGFXimxKVPRa2ltyNr5JKuDG93PcSG73Hi+InwraJeKRQVeQ1VRIBpR4cnytjyjBsh3knlVr8t1ZQnOcg+qQZaBZY8l6sJp3Ly5dRki7TSDFgdTSRSSoXXT2l+W4UFWUUEGBCeGBU1yycx7iDE28aWfzmn0rjt2DfO8bpz/L2IoVMmTJ+rknLO6+TUH7Oln2FCmVipKiLAjLEYI1PoxaXhLfcAlLp7Tt2eJFfF+3muGTuugnS2a8NaO+5rkvcmxlBFBBiMn6BTeSdJXD7OGVaVW5EWPwc17tdzvar0XyWrmL42rcP2cvi7EEKISlcxAaai0clKbCYLIYQ4XWUE2PgVDyS/hBDislAZASaEEOKyIwEmhBAiliTAhBBCxJIEmBBCiFiSABNCCBFLEmBCCFGhzrSySyWRABNCiApx6n2wlbwOIkiACSFE5Thl3WcJMCGEEPFwykIOEmBCCCHEJUgCTAghRCxJgAkhhIglCTAhhBCxJAEmhBAiliTAhBBCxJIEmBBCiFiSABNCCBFLEmBCCCFiSQJMCCFELEmACSGEiCUJMCGEELEkASaEECKWJMCEEELEkgSYEEKIWJIAE0IIEUsSYEIIIWJJAkwIIUQsSYAJIYSIJQkwIYQQsSQBJoQQIpYkwIQQQsSSBJgQQohYkgATQggRSxJgQgghYkkCTAghRCxJgAkhhIglCTAhhBCxJAEmhBAiliTAhBBCxJIEmBBCiFiSABNCCBFLEmBCCCFiSQJMCCFELEmACSGEiCUJMCGEELEkASaEECKWJMCEEELEkgSYEEKIWJIAE0IIEUsSYEIIIWJJAkwIIUQsSYAJIYSIJQkwIYQQsSQBJoQQIpYkwIQQQsSSBJgQQohYkgATQggRSxJgQgghYkkCTAghRCxJgAkhhIglCTAhhBCxJAEmhBAiliTAhBBCxJIEmBBCiFiSALucqejrEmesxV7snYgTBRY5ZqLyuRd7B8TFY61FaYUxBt/3AYXjOCgFWl3Euo0CYwygyOVypNMpwOIHAUFgcLTGcR2UUlj7zmZwKRZU6V2jSoANLNZatKvBvIM7dA7GBFgb7ZfWaKVRKgY1FiEmSQLsMqaUor+vn+/8y3fI5XMopXn3u+9k+fLlYcF8Eavwe/fu5ac//SnFYpEPvP8DzJ8/n+HhYR555BHy+TwNDQ18/OOfQOt3phlprCEIDEopHCcMdxu98/Zt23nqyafwA58PfvCDzJ83/23fn/NRWvHjJ35MR0cHWmvefee7Wbx08SUTrkJcCBJglzMFa9eu5fnnnwfCQnpgoJ9ly5Zd3Jq6gs7OTp5//gWMCbjxxhuZv2A++VyeN9e/SW9vL7Nnz+YTH//EO7ZL/f39PPTQQ4yOZrnxxhu49/33YgOLUoq+3j5eeeUVAhPw7jvf/Y7t07lYY9mzZy+vvfYqxhhWrFjBYhZf7N0S4oKSMbDL3Msvv1z+s1Ka7du3c/DAwYu3Q+V9URO+sOAHPkNDQxSKBUaz2agL8Z1pJhpj2LlzJ/v27uVI55HyPkLYEisUCxQKRQITvCP7cz5KKxIJL+o21Ggt/9RF5ZEW2GWsY38He3bvwVhDVVU1mcwIxWKRHTt2MG/+vLB6YwAd1ughGvspfT/8BsaYscLc2onjZ6W/R4EKC9bwhZS7KU3UNRe+5MwtP2stM2bM4JHvPoLWmnw+Xx7DK72PtaCifS1tD8Ltw9i4nrUW5ZyyH4TjWMpRBH6AQqEdPbYNY9BaUygWyu+pot7Lm2++iZtu+j5KRT8DWEO4Q1B+L+OH2wj31YIdC8Hyxy79bsMvS/QZ7bi/Lx0zrc/Zeaqiz6vU2Pk7n/IxLW3YTPyeNdFfacr7VKpElCoaNvwFYw2O42CtDccuHT32WcZ/ztLxN7Z8/i3hn8tjjtEx94sBrudEr4/FHCTxNpIAu4w9+ZMn8QOfhJfgM5/+NA89/BCe5/HiSy9x6223UltbC4wFwrZt28nncmhHs2jhInbu2sWWzZvp6e2lubmJRQsXsWz5MmprasvvYQLDps2bKBZ9pjQ309TcxMaNG9m5cydBENDa2saKFctZuHBhWLifZYxGaUU+l2fPnr0EgY9SiuXLl4cFWzjfg4G+fjZv2UxHRwcDAwM0Njay4IoFLFmyhKbmprEJH1Gp19fbx86dOznQcYC+/j60dpgzZzarVq5i+ozpBIEhCHw2b95MT08vxWIRz/U4duwYWzdvxVrLsmXLGB4ZZs+ePRhjmD9/PlOmTIkK+fCNjh89zpsbNnD48CF836ehvoGly5ayfPlyEl6i/BmLxSJbt27FL/o0NjUyZ/YcNm7ayKaNmzDW0NY2jVUrVzJ3/lxQKgzQSeRSuZU6idcqR5HL5ti2bRt79uyhv7+fQqHAtLZpXHXVVcybPw/P8zCBYf269WH+KMXVV1+F1g46CjHlKPpO9tHZeYQg8GlqbGL+/PlYYzHGcOjgITZu3MiRI0dIJBLMmzePFStXMG36tPDnrcJYw+7duxkeGqa6uppFixexdcsW1q5bR6GQ5/7772dK85TzfyhRsSTALkPWWrLZLFu3bUUpTWtbK9euvpZlLy1j/fr1dHR0sG/fPlatWoUi7MKzxvK9732XHdt3UF1TzYrlK1i/fj25fA4seIkEP33qp8ybP4/PfvazzJo1G6VhNDPKX/3VXzE8PMy8efNwHZc9e/fg+wFaKZRWPP7497njjjv42Mc+RiqVOmsrbGhomG9+8y/IZDK0trbyrW99KyyUNWzauIl/+qd/4ujRY/jFYnl2peu6tLW2cf/993PDTTeACQvcrVu28fd/93d0dnZijCEwQbm7sra2jve//14+8P4P0NvTyx//8R/jui5Ex2LXzl384Vf/kJkzZ/L1r3+dTZs28Zd/+Zf4vs/v/z+/z5SWKZjAYKzle9/9Ls8++yw9PT3o0gxPrfnJkz9h1sxZfP7zn6d9XjsAvu/z53/+5+SyOVasWEFdfR2vvPwKfuCjlcYYww8aG/jIhz/Ce97zHlDO5E961Oo727EtDSYcOXyEbz/0EAcPHqRQyGOMReuwq/b7j3+fm266mU9+8pMkPI9//Kd/pPtkN0EQ8NU/+ipLli6JKhNhpeLR7z3Kc88/RxAE/PZv/3Y4jpnN89hjj/H0T59meGS43A1sn7G0tbbxwfs+yJ133omxBmss//gP/8ievXtpb5/DtddcyxM/eoJcNofrebz//R9gSvPkD4GoPNIxfhlSWrH+zfUM9A/g+z6rV68hXZXm7l+4G6UUxgS8/NLLFIv+aT/rOA6ZTIZXXn0FgBXLV3Dd9ddRX19HLp9j967dfPvbDzE6mil3kSmlUCgOHz7M7j17aGpq4rrr1rBq1SpSqRS+7/Pkk0/y5E+ePHsBC1hrytPCrbVYE/6+d/devvkX3+TgwYP4xSKzZs/ixhtvZPHixWitOXb8GH/zt3/DwQOHCIyht6eXv/rLv+TosaM4jsPsOXO4/fbbWbliJXV1dRQKeR599FHefPNNXM9j8aLFtM9px9Ea7Wiqa6pZsOBKrph/Ba7rYowlCAIc7Yx1p2nFv//7Y/zbY4/R09tLVXU1K1es4F3vehdTp04ln89z6NAhvvb1r9Pb01v+jFqF3Wzbtm/jhRdeYOasmVx/3fW0z23HdV2Gh4d59N8epa+//+c542itx7pbz3hww68/+z9/xu7duwh8n1kzZ/Gud93C9ddfT2NDI74f8MLzz/PC88/jui6//Mu/TBAEGGN48cUXy121YCkUC6xbvw6A+vp6VqxYARaefPIpHnvsMYaGh2hsbOSqVVexePFiqqqq6Ont4e///u/ZuGFjuatV6XDW5/Hjx3n8B4+Ty+ZIV1VRXV0VzUAVlzNpgV1Oon/vvu/z0ksv4/s+jY0NXH31VWBh8eLFNDU20T/Qzxtr3+BDH/4QrVNbJxR8fhCGWlNTM1/+8pfCWjfQdeIkf/qn36Cjo4MDBzp49ZVXec9734PvR/ciAUFgWLVqJZ//3OdpbmkGC88//zz/8Pf/QGZ0lCefeoo77ryD+ob6cOKBUtjSJA4YGxeyRNsM72/64Q9/yODQII7j8Iu/+It87GMfQ2mFDSyPfPcRHv/+4/T19fHssz/jv/7X/8badWvp6+/HcTS333E7n/3sZ8vH5tlnnuVv/uZv8Is+Bw8dZPWa1XztT77GsaPH+PKXv0yhUODaa6/lC7/+hbHDGo0xKW9szOb48eP8+7//ByYIqKmt5dOf+hQ333IzjuvQ3zfAww89xMZNm+jq6uLx7z/Of//kf2f8iI5f9Lnt1tt48MEH0a4ml83zB3/w++zbu4+hoSFOnDhOy5QL2H2mYPu2HZw4cQLHcViydAlf+cpXSFelAeg83Mlv/dZvYQ3s7+ggMAHLli2jqrqKoaFhXn/9de7/lfupr69HacXWrVsZHBxEa811111PVbqKo0eO8v3/+A+00rTPbed3fud3mNISfoY3Xn+Dh779EINDgzz81w/z8MMPh6fcht3XgR/gJRLc98H7uPmWW3C0plmaX5c9aYFdJmxpAEjByZMn2bNnN4EJaG1tZfbs2VhrSafTXHPNNfh+gO/7rFu7bmyyQ3lD4Lke99x9N0uWLCl/u3XqVB544AHS6TTGmHILzRgT3UirqKmp5qP3f5SmpiZsEO7Pbbffxpo1a9BaMTDQz47tO07b7zNNQChNDOk+2c2evXtJJBLMnDmTj3z4I2OTLBzFPXffw3XXX8fKlSvDrsLAZ+HChTz44K/zhc9/gV/+pbAVUZoYkUqnSKVSBCYgl8uVJyaEkzic8mQOABOM27fxXXQWNm/eTDY7iuM63Hrrrbzr1nfhOA6BH9DY1MCnPvUplFJ4nsv69evJZDKMv3OhuqaaX7n/V0BB4BtS6STXXrsai8Uv+hQKhf/kFXHK8fQN1dVVfPKTn+SBBx7go/d/lHRVmkK+QLFQpJAvhON1CgLfR6Fobmrm1ltvRSlFT08P27ZtAw35XJ61a9eSSCTwPI/bbrsV7WrWrl3L4NAgXiLBJz7+CaZMmUIhX8Aay5rVa7jllltwtENfXx+HDh3CcRxAYYzFWMNtt93KfR+6j5aWKUxtm3pxb7YXlwRpgV0mSgVxoVBk7dq1FIvhRIhpbdMYHR0lm81irWXlypW89vprZLM5Xn3tVe6+525cb+wysVi0o1mydAm+7+N6LjaaqdbePpf6+nqOHTtOb28fQPmmX601ba1tzJkzJxz3CDeGtZbrrruOF196kUK+wImuE+XJBmZcd+GpSoE8PDTM8PAQxWKR+fPm4yW9cFWMaD9r62p58NcfDFcYcRSBb5g7dy6zZs0iM5LhyNEjPPfcc5zoOsGRI0c4evQovu/jeYlxsxZLsytVuUUQHtOx2XGndn12n+zGdT2MCbj99tvLs+8c7YCB5inNLF68mB07dpDL5ejv66elpaX88y0tLTQ0NITHLjp3DQ315a7KCz0tXrua9vZ22ue2k8/l2b17N9/91+/SP9BP14kutm3fFlVEnHLL1xjDTTfdxA9/+EMSiSTr31zPDTfewNDQEOvXrwegra2N6dNnAOHN6aUu5edfeJ6f/exnURdhOJZ34MABkskkWmt6enqYO3cu1hoUkEyleM973oPSCle7Yfcx5xjTE5cFCbDLRTT1XSvFs88+h+/7KKV57bXXWLd+XXl2mOM4ZEYzOI5LZ2cnu3btYtnyZWOb0ZqqdBX1dfXl8FIKjLG4jkM6lcbzXPr7wwALgrH7oqqqqnATbjSRIvye0oqprVPLU9C7u7tPmxt9tnu9lFL0DwyEswuVoqGxYeLPWNCOLk+7V74mkfAA+Na3vsWbb24gl81ijCGVTlMo5KMxsMJYyEYSiUS0H2rce4z7PzWxlTuSGQkDTinq6mrL+1QKP8d1mDKlGddxGB0dJZfPn/LZNI5z+j/P0rGY7LT4yfKLYWXkX/75X3jmmWcYHBokn8vjeh6Oo6mvr2c0M1qeXGGtJTCGWbNmMWf2HA53Hmbnzl309PTSefgwIyMZisUC73rXu6itrQEgm8vieR6FQp7nn3++3DoPP1B4rjzXw2Lp7+8vVxyUUlRVVdHa2jph6r60wIQE2OUimq136NAhTpw4HhUMYYvKBIai74dBZA3JZJJioUgmM8pLL700IcCU0mRzWfoHBmhtaw2/p3V50N0YgwkMjY2NAOXaNcDw8DDFQhEvCpGSwYFBgiBAKU1dbV20v2MF25mWpS3VvJPJRLS8k8vg4GDYNTn2IgI/oPtkN8aGXX9tbW18+9vfZu3ateFU/BXLWb16NXNmz6F5SjPHjh7jm9/8JoVCAWvH5vS7jjshgMJdNGCdCQFb+qPregSBQatwPcegGAa5djRYCExAT08vQRCQSqVIJZMTgjuZSOA4+qytT3OBb+B2HZcfPfEjHvv3x9BKM3PGTG66+SYWLVrE9GnTQSm++MUvQuCX7wlLJBIkkwluvOlGjv/bcQYG+tm0cSP79u2jWCyQSCS45eZbxrVYwxZsIpEIt8VYRaO0PROF47y5cydM0ggny4TnwxgJLxGSALscjBufefTRR1GE99jc98H7WLZ8eblVUiosjx8/zv/9v/8v+XyObVu3MTgwSH1DPcaEsyiy2Sy7d+9iydLFBH44fqQ0HD7UGXYBKmioD1tDruOGN6Ray8nuk3R2doY3SUO54Hr99dfxi2HB2DI17EZzXIcg8NFac6ayWkfBOHXqVFKpJLlcliNHjoRjVI4Tzgg0lkOHDvHVr34V3w+48YYb+NwXPseWLVuBcCLKF3/jizQ2NaIdTeAH7Nq5i0LxDONL4+43NlHrx3GdcjdoSenPra2tFAp5kskUL730Er/ykV8ZC3MHuo53cfDgAfwgoLaujrr6+nIBDZRbOhdmSa8wFPyo2/hMhb9yFC88/wKJRNh1+sDnHihP0Cnki2QymSiwx92ErcMDcv111/PUU08xNDTEMz/7GdlsFq01V1xxxYRW8cyZM9m0cRNaaaqqqli+YjkmMFgLjqs5fOgw27Zuw1jDwoVXjrW2ouNaOqdaFiQWEanGVLjxrZfBwUE2bd6EUopkMsntd9zO0qVLuXLhlVy58EoWLlzIwoULueWWW5g3by5BENB1sos333wTgGI0ccB1XH7yk5+wZfMWtHZAwWD/IH/3d38XdkNqh9Vr1mACgx/4YWFsIZfN8eijj9LX24cNwi7LDW9u5OVXXiYwhqlTp7Jw4UKA8pT0sAvwDAWWDVuO9XX1zG2fCxYOHTzE9x79HsYEGGMp5As88cQTDA+PkMtlw0knNpyFaaOp7yOZEay15LJ5BgeHePmVl6N7vs5CQU93d9jl6puxysG4cTGAlStX0tTUTCLh8cQTT7B5y+ZwmSkNmZEMjzzyCCMjI2itWLNmNdXVVeOmoXPWsb+3at++fezatYvt27ezZevW0766T3aH98KhCEwQdhOWWrPW8q/f+Q6FQhFjDIV8IZzco8KJL7Nmz4rGqywHDx7g2LGjWGu5/fbbw27m6HOsWbOGdFUVgQn453/+Z7qOd2GNxXE1J0+c5KFvP8Tf/n9/y7/+6yOkkqnoeI613mQlfXEqaYFVuqjrUCnFG2+8wejoKJ7nsXTp0nBMYVyZUCpoHNdh8eIl7N27D2sNr77yKrfddhuOOxYqAwMD/NEf/TFLly6hra2NjRs2MjA4QKFQYPq06dx++20TCmGlwu2uX7+ezsOdLF26lGw2y8aNG8kX8jiOZs2a65gxYyYAfhCM3eQ6voWDHbsfjLDb6e6772b3nt2Mjmb5t397jN27dzNz5kz27dvH4cOHMcYwd24711x7DSiYNm0aQ0OD9PR087WvfY3Vq1cD4cLGg4NDWGvQjmbz5s08/fTT3PXeu7DW4noeKp9jx44dfPlLX2be/Pl87nOfC5edUnqsW8/CrFkzueeee/je976H57r86Z/+GStWLGf69Om8/trr9PT0hAHcUM/dd98dPcZGlVte4Y3QBq2c8mCbox2U0iitMZNYczEIAgIToJXmxz/6MY8//jiu6+I4LtaaCS2+j370oyxevJiOjg6w8I1vfIPrb7ieVCrNhg0bOHLkSLlLc//+/fzg8R/y/g/cSxAYvITLqlWr2Lxpc9SisqRSKW684caxnTGwaOEi1qxZzYsvvkjn4U7+x1e+wooVy6lKV7Fh4wZ6untwPZf3ve+/kEglyq37cF/l+WbidNICq3ClVTT8gs8zTz8TFWAOd9x5x4T16KwJa9OlVsAN119PKpXE0Q679+ymq6sr6s6zuK7H0iVLSSYSbNu6jaeeeoqe3l6KRZ/2Oe186ctforq6mlNnY0xtmcrCKxfS19/HMz97hnXr1zE0PEQQGO68404+8uEPlwtm13XwXI9EIlFe0w/A8zwcxyGVSoWzArFcc+01/OYXf5Np09oA2LRpE0888SM69nfg+z5zZs/mU5/6NDU14WSCz3z60zQ2NqK1pre3lx//6Mf86Ec/YqB/gHlz51JVVYUxhs7OTl577TUg7G68+qqryrcJHDx0kI79+wGL47qk0qlo3CrsJnQchw996D7uvvsXSKVT5PN51q1dx+OPP05ffx/GGq5YcAX/63/+r3D2oQKUCs+P65JKp8OwKn3waG1B13WwxkyYHHM2jqNJeAlUdN6qq6pxdNg1a6J1B0v/BUHAJz7+Ca5ccCWu6zI0PMxTT/2Uxx//PsePH2PGjOk0NzfjOA6Dg4M8+eST0Wr8gIH33vVe6urqQIU3Yy9fvpx0dTrsaozWwXQTLp/4+CdYvXo1WmsGBwd46aWXePbZZ+nv76e2tpa7776b+z96f/k6dF2XhJcIj4ssSCxOIS2wy4BCUfR9fvGXfhG/6JNIJli8eAmBb9C6tOL7xAkXc9rb+c3f/E0ymVGsteEMQtdFa43jaD72q7+KVop169dx4kQXWilmzZ7FzTffwpTm5nC6tzNxqaP6hnq+8pWvsGP7DrZs3cLw8DC1tbUsX7acq66+KhxTisyePZsHf+NB8vk87XPmgIWamhp+7dd+rbwmoWVsMP+a1dewcNFC3nhjLTt2bCcIAlpaWpg7dy7XXnMtiWRYo3cch9nts/mLv/gLXn/9dTo6OjDGUFtTy6LFi7j66qvZuXMnr7/2OqPZUZYtCyewaEfx2Qc+y7v3vZv9+/cTmIC21jaUUsyfP4/PfOYzWGuZNWtW6aDjOi6f+fRnuPfee1n7xlqOHjsKQCqVYtnSZaxYsYJkKlmuZKRTKT71yU9hrKG+vj5qeYSzIbVVrFixgi984QtgYd65njkWNVXuueceli9fAdG093OZP38+iVSCP/zqH7JhwwZ2bN9BsVikpraGpUuWsmTpUnp6unnuuefo6+ujfU57uWsYIJlO0tDYwPDICH5Q5O5fuDsMuGgZKkX4GRsaGvjK//gKe/buYf269fQPDJBIJGhtncqqVauY0z4nnKWKQmnNB+/7IIODQ9TW1KAdeSCnmEjZ4B16HsXbQcPTTz3NX//1X5OuSvPn/+fPmdo2VR7adybR9O7SxAkTjK2MDkw8ZtGU+9LMvdJrfu93f489e/aQTqf53d/9XRYtXgREq1CMH6cat3L6YP8gv/HF3yCXy7Fo0WL+9x/+Qfh2pRXiy6u3j40jjV+OqTRpoPRU4fErl5dfU3rPc62UFK0OH3ZB+IyGAwAAIABJREFUhpMGzrTfhXxhwixJpcLWSWnWo3bD/fWL/tjMRKe0n2Mr1E84pmfKDnPK/p66MG/pHJVan+O3a8edv7OJXhsEUSXlfMsujTtn5fvwjJmwun5pVwLflI9f6Qbvjo4Ofu/3fjdq8c7hG9/4RjjR5my3QJRWvLenvE807lbqqp7QS3CutRxFKDpH3V3dfOlLX2I0O8pnPvNZ3nvXXWNPaIhviX8aaYFdJmw4lSusERtbLjDOdDEb36C0GissoteUCszSVOjS0k4qWrx1QkBGK1ZYbLkLUCuFH62v6DhOuSCGsa7OiTdWTbyfK+zqtOXXaUdH9yRR3obSlMdhSl1X5X1U4SrnpdeUtjf+PUuTDkqBapUtj2+p6NiErwzHq7Dh9xztQBSO2InFbDgb33Lq7c6mNKNufA5FY5blY3Dq3zHxXJxLaQWU0uogk1F6pEnpvJUrCmpsG07pVoAg4Lvf/S6JRIIXXnihPJP0xhtvxPHCVUfONt29PH2esXNfvkaVmng9jHudEONJgF0mFESL9pUKDMotktJiuyXloCqXHOFvgR8u3FooFMvdgxaLshODrvwepYAgrKkbGz73a/zCsqfVqMe3BJhYcKLGzUYbdyP0qcVaKezOfiDOVRhG3z+l3HUmUfMvBcWpb63G/TphP0v7cGqPgRn392+1N8GecmwnGWCKU8/LKed2nHw+zw9+8INo1f+wS3fhlQvD8VWYsLjxmfbv9PdmbBrnz7nf4vIkAXa5UUy42fecXTLjuxsUrLluDXPa5+B5HjU1tZOa5p1MJbn11lvJZDLMnBnOMLTWnlYwh7V+KCXA2NOOSze6qmh3xm58PaeLWPBdLi0FrTWzZ8+hkM+Dgrntc7nvvvvC8bsLdg+bEGcnAXY5GdflN35S8tlCrBwqUdfOBz7wgXIXZKmFdfYiKtxqOpXm47/6cRzXLY+hnPWhlaVf1fjvnfv/z/H24m2WSqX4kz/5enk6vlZ6Yuv31FagEBeYBNhlarIFS3kMvXSLkxk3djGJn1NK4bgOxgToSXXEiTgIG8WqvIblhCW8oklAQrzdJMDEpJRuKp50C2j8z6KiSQ6iUig4bcyz9GcZtxLvFLkzUEyajGkIIS4lEmBCCCFiSQJMCCFELEmACSGEiCUJMCGEELEkASaEECKWJMCEEELEkgSYEEKIWJIAE0IIEUsSYEIIIWJJAkwIIUQsSYAJIYSIJQkwIYQQsSQBJoQQIpYkwIQQQsSSBJgQQohYkgATQggRSxJgQgghYkkCTAghRCxJgAkhhIglCTAhhBCxJAEmhBAiliTAhBBCxJIEmBBCiFiSABNCCBFLEmBCCCFiSQJMCCFELEmACSGEiCUJMCGEELEkASaEECKWJMCEEELEkgSYEEKIWJIAE0IIEUsSYEIIIWJJAkwIIUQsSYAJIYSIJQkwIYQQsSQBJoQQIpYkwIQQQsSSBJgQQohYkgATQggRSxJgQgghYkkCTAghRCxJgAkhhIglCTAhhBCxJAEmhBAiliTAhBBCxJIEmBBCiFiSABNCCBFLEmBCCCFiSQJMCCFELEmACSGEiCUJMCGEELEkASaEECKWJMCEEELEkgSYEEKIWJIAE0IIEUsSYEIIIWJJAkwIIUQsSYAJIYSIJQkwIYQQsSQBJoQQIpYkwIQQQsSSe7F34JKhLGDP/Ro7ibxX5nwvAKvegW2c7/NciG1w/mMymW1cbsdECHFBVGSAnakMUucrQydD2fMUcBfiTSbDAucpaM+7L5PZRqWRYyJEJamsAFNjv52WM+ctl9RkXnSel1yIbcCkenbfkW1M4vO8I8cVYnVMSsbnpeSiOIW1FqXU23KdKK0wpe1XsIoIMMd1CIKA3bt3c+L4CVCK8Lwpot8mYTJdXZPpGppEV9d5d+hCbONCfJ5KOyZv/3E1xqABa0HrsWOjVPlqFILABDjaITABSo1dJ/oCBI7F0tfXjw18sAb1jvUMvfMqIsBMYLDG8s1vfhMseJ6HseH3jDVReTOJ7qPz9TPa8xVwF2IbTGK8h0mMPV2AbVwyx2QS24B35phMYhsJx8NaG32ZqGNSSStMlCmlcJyw4k3pWom+/5/aLmCMxXEcwquusi+6iggwaw2BsWjtgIaC8TEolFZY3LD6W+5TPFthWWmtjUulBTbJSRyXRAsM/rOfRylFUTlgLUW/WC5AKr0rR/x8FAqrXHzlh62w0nXynw0cBVYZjHIwJsBxNDZqg1XiFVgRAaYwpKuqmLvsGtz6qeTRBEph0RilwSosClWu6Z+pkJpMM3syl8CF2E4lbWMy26mE4xrWoK21ONE2SjVse4axiMrt1BGTYY3Bcd3y1WaMuUDXiYO1AX5mgEPb1hNkerFoKjO+KiTArFKM+pZg2mJ6WpbT53sEjsZzkljHAaUBg5ZSQ1xQpxYK0QVmx9V3z3DNWSUBJjhvefRWrhNLEmMM6cwRurbtpEX1E1bfK1NFBJhyExTcNBmVYpgEQXUjAWCtxlcWY6MyRYgL5uxdllqfuztzMp2qovJdiM73035GKYwy5Ixi1EuQ12rcliovxioiwGwAaAelk1idomB0OO6FA0QzwNT5azxCXAjnnbOCBJh4mwIMUFbjWI2nXJwKX2ypIgJMG5+UtnjKkNDgGovVFm0tKBWOTpRnl1VeLURcSiY5Y1IuQ3EhhoZP40S/a6zVVPpqgRURYAqLISDQFl9bAmsxlGZ+lQbRTdinbLWUHeJtpNDq3IWGtMCEAsx5CqK32gIzKpxvezmMtVZIgIWzerAKazQWB5QK6x7KYlU4JqEodS0KcfH8HGt5iMvYW7lOwpmwoDGo6KuSVUSAoRTWROsUWgcV3YdTzioLBo2q8Oa0uARckEU3hXjryne8XgaXYoUEWPkuHMBgddh9GJ5AJwwypbGVXRkRlwKrLo+SQ4hLQEU1ScKaRxhkpsKbzkIIcbmrjBYYY/3FYyE2vlWmsNbKwIMQQlSQymiBlWbblBZCgLHHFFwOU3GEEOIyVBEtMHuWP4ek2SWEEJWoMlpgQgghLjsSYEIIIWJJAkyEZJxQCBEzEmACiEYKJcTEeLLmlbjEVcQkjtgrPenAcpZn95ypFBlbZsSgyz8/9re2/Pspf4WNFplR2OhZaRaFDzjj7sGd+J5jWyNaIPntnR6j7Fjpef6n1JZumwhvpAj38W3cuYoW3nIy9jB6e8arz6DQRAtmU8o6NXYdyvEX7wAJsIvNqrHWT2EILz9IkrAAHysDJlaFFQqDxtcaTAG/bjq+jZ7uai1KWWxxlHz/Sfzhfjx/FBQk6pupqqvHTzcxRBWpIItxq1FKYXyfIOtTr0YxxVFcAowK8EvrcSmFdRKYVA1FXY2vXRwbRE34C9uQt0EB8kMkbBZloSrwyGuNtgaFj0ZhcaMj4QNFfAVOVQM5myRwkgRWYxRoaUKclRn3q1JOOXeMVaDDxw85NlpjdPwaolZhFRRzWeoLGRLGx9TUkdEJDF74kvC5Hu/sBxKhy6jyIAF2ifBswJFtbzC851WmFHrLD0UIlVYVcVA4UUsNjFLUNTex8I4PsS81j4Jy0X6O4Y4NjO5eT7GrgzR5EgQksOQUBM1tpOYtZ/aS6xhyGhjBoqwil81w8Onv0JLtJBFk0TYs/EstOa01uEnctvk0zl8FrVdQ8GooqBQBXNB/NMFIL7uf/Gem5/vx7DD90T4YNFap6HlHUeGqDBaDW9/Mynt+leO6jVHjESgoyMLN56SBIHpOXtDfTdrk8ZwCur6ZQZPG1x5Ghcf6VAroWP8s3uEN1BSGWHLn+3FnLGPY1hIoDyvhdXFEZYOKltezFf4kXwmwi85G3XyKlAlI5Ptp8rtQNghrsVahtBvekI1Go1HKoqwPBKQLBWpVHuUHeMZn72s/hsOvMcPvp5ocupjD1QqDweJjuwcY7j6EOtnJlBvvwa+tpqBclAWbH6bWHyBdGMFaBwfQ1o8eR6PCltrQUQYPb6b5qtupXX4XJ2wCrRzM+H67/2ThpazBLeapzWdI2kGMKqADSLgOxvdJuBqsxaDIG0NRa9y8QzrIYzTktYNjAzilGiBOZwCKBXa88gxNw4doSSsW3/nL2NQMsiTC14w/nzYMPoPFNaPUZI/SmO+hLnecrJnPsFMji7hdTKr0r/DyqLxJgF1kKgqwAAefFI7x0NZD46C0IggCgmIR13XQOhx50CiUDVCmgKcgGyhcR7F33ZO4h16jzZwgZXywhlR1OhztsgYT5AlMgbTy6e9cT2KTS+sNDRxXjVgbECgH3y+g/TwJrxbtuOFIh4VisYgJAhQBNcUeutb9hFlT5qPbVoUtsAspUU3D/KuoKvaRtMMoDG4BjnfsoooMXpCnYd5iiskaXBzy2oPaKZx06gi8JD5glOGyD7BS7pyjLLPW4liLO9pH48gRpjgJ6oMhek0LgVt1xh9XGCyaQqDCLmvXQQV5PFMEDUa/fbPDxj6SKj1++Ex/OSmq3JNxvjeNRgPV+G78S1NpAaLLpfNBAuwSYFEYBW1X30jVihUkTYEAgzE+O1/4AYkjW2g0IyRqmlh690fpTU0nUCkUAfnAcqy6meMHd2KO7KA1P0CtUyRnNQtuvpfk7BUMe40UCejau56uDc9Tn+ulWmky+7Yxf95Ssm0rySiD5zq42gXl0LxoFY1XvZcBpxYfwBg2vPg0iWNrafH7cP0RdOdG2qY0c8KdQVElL9hok5OqY9Z1d5E0RTQBCkuxv5vRY0eoyg1h0mnaVt3Byeq5+F4NGIvruow4HgEaXcySTCTBBBT9HG4yQTHQ5JRLWkOSYlhwGYUtFEi6Hr7SFKLJLSiF0qCj8bbAOuH5CPIkXI0KLBqXorEEKhzD1Bas1hilMMaitcLxDR7hE8EDhyjoFUpplDWk3fAJCblcloSrCNIuI5kRapSLQeFoD+UkyEXvA9GYnlJYCwkFbnGUcGTQxeKT0ApskkBZjAqDxiqNtQFpT5MZzFCdrgEF2WKGmoSHY8BTSUjUYOwomhwJ16KVpWCJRrXGKCzagmvD6pTFBZtA2VMqDHZiW8CGH4DAZEm5Lm4R8ANIQmB8CBTGSVBQ4OBjDKSTaZLFAgWVoGihqMLWn7ZAEITd3MpHaUNgkmAdcC0Fm0dZBzeApLY42sFqh4IJd8joAAeD5xtc5ZALAjI2QcpVOFi0yRJYQ8FJEj7RQp8yvepMk63EO00C7CKzUWEEUHA8Ck4jjoGismht6TIppnlVUMhRxMWvaaHLNFFwatE6rEGbfIGT+7fQlO2myuSwWjHv2ttJzr+eI6qFAbce40By8RRSJkX3uqeZkR/E+nlOdh2i0LYIYwOKxTwAjusSeEkGE42ccFsoAkGhwMI7P8yOxzrxR/IkyVPsOkKNyUQPz4s+z4U4KFpTIEFBh11YylqsmyVTKNJsfQrGQaXqGHHqGdK1aO3TseFVUiNdTJtSzaz5i3l13SY4vIca2821776X3vqVDA2N0HdwO+bYFhL5YVI2wBpD9ZS5TFl6A8mWdkZ0DVjFiT1boWc/rh2ifcXN7N+3j+zhraRH+6hPJKlpnU3z4jWMNMwkr5KgNfhZhno66dm3FXt8P/WFHAkbkJ7STN28ZTTMWUXGq6XoKoJchp2vvEZ1cZhFC9oZGvE5cmA9Zug4+WJAoraR1gWrqJ53FUOJRoZVkqJSKKtIBgXy/Sfp3P4mqnsfeqSLlKfwqhtIzVlJ7RVXM5quJ4uLciz9Jw7RvW8zdWaINVddTceefg7s2U5y5DA1SZea2mYaRw6h/JPkfdj76nN0p3bQtOwGUs3zyOr06acIcJRC63CflHKiLxXW/k9pGCnAsxAUsgyMdNK3eyMc6SCR6cPzDKqmkYY5y6ifvYxc/VTAsnXTi1SNZmihSOuyWyjUzmTEcTE6rGB0H9hF8dheUsEIU+dcQdOcq+nHMJodxBzq4Pj+vdSOHMYNBknXNzJj+a3UtF7JaKKGrLUExRzHtm3CHThBfWMtLe0L2b1rC7mO3TS5o6y561566hbQRxV+1J0qLi0SYJeCs9yElUw40aLEFqzBBoZioUj0wOnwx5Qin89h+k9SY4fQuoBX10zdgjUco45MopZCaT1jt4aGBdfjqjRNhR6MMYxOmU6ROjybQUU1ZmMtxhgCLAVlKdgA5SoCpaPpIB4ORZxoBuVpNdGoa8ZewCqq1jrqHlEorXC0LheWrnbpOrif1pG92D6f44fW4p3soikoknJ8ppgsRzt30Pfm86SGO2kyo3jG4qgCSlkKmZN09hxk7s3vo3raVRRsFX73MRL7XiVp+hnuO4Q5dpIp5HGDQWo8Q9C/m77Bo7Td8kv0pqdjvGoO7NrI4O7naO3vpE7l0cUAT3v4hw7Sd2QLZsEuWq95DwPVLXQPdTN0YBP19NN9/FVyeWgMhvBMjgQONnOYnt7dZI7vYOYN96CSMxjS9eigQM/ejfRueYHpo50k/CxOMILNFHCGUgz3HWP4+HZmXf8LqJoZ+LoaO9RN8cAGEv5xcoWD+Id7mVEcJaWH8Ed9Cj2aOgxJP4OrPDKHtxN4B5kyfw4ZfxrZxOkBNv68j025VxO7rlT0kFkdjrUFytCzbzMDO1+juucA9WaYKiePKRSxueMM9e4nd2InbdffQyHdhhnqwXRup5g5SbqlCa+qlqxuIDAOjioycGALiQNrSek8M6+YQyE/gs32cej1Z5hx4iDTgkEIRvDIoLMeh7sP0XjlDbRd8x76EjXkgyK9nfuoObmL2hrDwKE3SPSepNnPUuUVqS70MGDbcaL9x46tDy4uDRJglzA7/k827NLRyqIdUDrsmlJKkc/lSGWHSdoshoD6qTMZdmrIetUUCbudjDJhMKUaqFl4HQWdxdUuGQKsrsMJ7yaLstRgjcGzPrWqiK8VjgPd+/YQ5PrB5PAJSNRUlR5WM2G/S4WZLc9iPNe/+J/vpiGlo6dvRz9ircUPAhytSJgitvso2gmY4rrUtM7HVk1jgEb2bPgZjYN7SDPK9NnLaJy9lGHlc+zoIbKdh0mMHKNvy09pnzqPLuWCLZA0/dTkBnG697O0fQH1M69k0C9wYMcGkqODmM69FPaspemaD3A8M0r//h3MzHQyr8qlafHVmLoWMqOag1vX4YyeYGjPG0ybPo3aK27iZDGPa/IkzQiJ/ACpdDVTF6zBq29jaHiIozvWovK9jB5Yx2hDA01L7wLXYfDEMTpfe5J59gQNdoDmBSupmT6fwWyOgzt2obJduEe3kN2covna/8Kg8vBsgBuMUhNkGN6/l9qCwWueQq6ujeraqaRSDod2vYlT1FS7mlkLr2akeiq6biq+OqXlUapPMfZVGho6633PJhw3G+w7xoktr9PWs49ap8jUK5dSO2suNnA5sn8nuWO7scd3YY9Mp3Hxe5k5axkDh/dRi8/g/g1MbZ9Pv63Gs5r8QDf0H6PBDtPU0ESyroEsBY5teZ2Grp00BoM0zJ5N9cybGcmP0rF7B05ulL5dr1FXnaJl2Q30Gk0SS61jSQ6fIBgs0ppIkprajl/bRH9yGlk8rNVjPQwSXpcUCbC4UNGtolFrrXR7qdaQLxYwNosiwMei65rIJVIUtYeyFheDH/XZB0phUlUMkIwixuJGpY62BmssGsvIyUOMbHiGIZuiaAIGBwbID/TSzDCuHcVoTXL6XIadGoJwRAk1fuhehV1Mjsmh8VHR7DVlLRgXHEVOhdPdGYvO83z+qOVpzVjQYrHWYAlQyoTjGslqrrz1fQStqxhwmznQ382wVTSlG0k2zKHlpl9isGo6QwSkpw9wvOdRpo/uw8kOk7ajoGrxCbD4eAlF1ZTpzLz5HnqTbTjJOhKpeRx79Qe06RMMHeugaVmWzIhFZTM0YXGra6i+4iqytdPxbDX1tdPp2vwK9YzSM1KgOjCAi1EWlyKeghnLbiTffjO9qRZcx1Bf307nq4/T6HfT37GT+jkrSVU5bNvyCtPpJVUcZM7qm1GL3sVAchoBmqnTbmDfc99hytABenZtoLF9CakZ9WHrQRkUhoJxaL36atyF1zBcN4MgX4PrBvQeGaC2dw+1SZeaK66m2LiYfmrI6qrTToU95Wt84V6eRzHhhniFi0VnR0kATsKjYdY8pq+5h5O6EaMS1DfM42DXCZrzx6DvGMlCjoaWOfTUtkLxBIWBE6Rz3STdqRgnyVDXUVKZQaqVy5Rp8xlNVNEz1Mvw4d3MKPTSfMWVtK6+iwFvPk4iQeO0fRx79YdU9x2kf9dLNM9oo6Z6Fvg+Ce1g8llqm6cyZ81tMH01vaqabqeaHB6B1WOPbJL7Ci8pEmCxcPoDY+y4/7NARhl8a0m4HjkV3txT0KCME7WEDI4N20NB9MOG6B4fBQo/vC1YaQyGfPdBir3HCacrQDOgUXjKgFbUtM1DzVzCoNNEoDwmBlBYTR/u6SbTuZn6oAfHghuFmEOS2tY23JlLGdZV558FFu1t+BV+YmsClBuuQ4IKuxdRPoGjuOKqm/GnreaY08agkyBoTLDqno9Tnxkk5TkMpZvpL8JwPkvuxElsPo81FmM1Piaa7WlwLAQ2YP6KNXR7LZxwGsjZNEy7giEnRbNvMYCjHVJVaRLJNIXRBN19XQyse57amStRzXOoa53BrLvuI2ENI26CPlWNssPh7djWp7ahnrqZK9lfNYseL40y0HjlTRR272G0x8eMDOBnuvHdOob6j9NkhkjV1lEz7xr2JWfS5zTiWbBTqtFXXE/flj4a6aLQu59k2wIIijiBRRuomjKFmpU30lk/lz4/jeMkcQxknGaadAKlHAo6xYiqYVjVYPTpz9M7a4AxFmITT2lAIchR39ZG0x330GSHSSWq6c2nKWpL1h8g03UUx1hc10MHAZ4ypKpSpGbPZqh3FzWZEYaOHCB1ZTtZXUVXx05a/SwpnaCtfRFHrUfH3i2o0X5c19AybxE5laa/kKBYsLjpBqbNnkdu4BDB4EnUYA9ecirW5igGGXTCZdbS68nOvo5jupWicvGVF/3bKbXASivDXLpOXXWn0kmAxUIYQIyfLFHqQgNQCk+nQLk4ylLo76fWFkDl8bWLtRps1D4yluxAF56fAaXQ6VpsXSuB9jFK4yuXYnTzqvWLuFqXx9osiiBZTcv8a6lfuIbBRCPWJrHKJZrchbGEXZyBItfbxdC212gsHAhvjLal2XqGmhU3YKe1k9HVUefluf/Zlbupos9tjCkvaWVV2Hp0rEWl6qltX8Ye1UBGJ1AKkokkWrdwfMincHgX7vDLDPeewAZF7OgAzcEoWgVoikST/Mr7o7WHm66loF0CoyjYAEdbPEeRdDwcq7HFgKqaOtrmLWRw8wGa/Sz+wS10dewm77bgNrUyVF9Py7zF2BkLCfDQGBLGYq2meuo0/FQ1xrHlwzBYcEjPWMBwzx4cm2V0dIR8KofnOpggoGVqG1m3jjweVoXHJ6MtTYuWcmjnczQHGp3pp9rkwpl2Nok11TTPXEQu0cZosRrPqUYRgBm7ESJcDkqfs6guhZRV4ZeKzs+ZuxAtVhlwNEa76NoWDnYOMXxsC1WFYfy+4xRHBrGFLM0UcILw2vFsAaVd6mcsoHvnJqpHD9LXuY+pC29mcLCXRP8xqvwhWufPpVjbRNGtITeSI+06uHhseOElCs4GMm4DKQvWDtOgR0n7BRJGYfoHSLQU8TyD1v8/e28eZsdRHvz+qno52+yjfbdkW7tkZLzItrwv4AUbOwSCISwOkO9iboK/cJ+EwAf5niR8ScgNEIjZnBsccIyJwTsYvMrYMrasxZatfRmtM9KMZjlz1u6qun90nzNnRiNZkmWsGdXveY7O6Jw+3dXV3fXW+9a7hBjPIzlhOrtNmnxV6zTx6p6p3oODnJVOZkl2imAF2AhAmIGHZ6jThNZQV1dPTiYJtUFIQ+ngAZr6u0k0NVAQCYT2UUJSQuEHOdb/5j4mFHdTrwr4c8+l6fz30y4EikgISOPRNHkq6alzCJzoYfZ9Hxwf0zgekxnDAbeBskwQ4FUHLR03MtQVYVkiYfIkTGlAAzMQBkUcXUQZjT6KVTKGfG+IHE2qoUBCgI7b7jgESALXJ5CRhiaLWda98Ax1O16mRXXjBTmapY+byNA8poFsVwERSFwjMaYme4EArSVFA2XhoIWLKwRSh0it0aHGdVy0CcmFJaaccyHZlhS9rz1P0LEJ15RIlLpJtx8gaC+zpW0lUy68nsbpS8ibANCEWmCET8mVhKYMwgdccAVFJ01JuAhhSEhDwYToUgGPaM0vJ5KE0qsKdcd4qECDAjd0EGFsxjXg4eIIF5lME4okhiRCUZ0E1PZu5DcUa7pHM1IfYe4RrYI6SAGqv4fNT/8Sr30LjV4P0vSRVCHj68eSam2iq30XvgQ3TqOmtcRvmYRunobOtVHqbEcf2EV2b5HG8kESJkfLpCn0e43kTRJhHBJakgiKFPMBocijZS9GBygR0mcMvuOR04pm4ZIUThSC4fgk3Dq09BFepno/Vl5yGA30VNN0TlasABshVGe9Q+a5BkMikSDTOB6V30oY9hEcPEBhz3YaMuMQThpl/CgvoOuw+fWXSPdvZ5LYQ2PZYXwSiqoYCUgRkDAKzzi4zZMxZyyjzx9PxU3DIKI4GpkgFG7V4yxqm8YIjdAGg0soBC1TJzMtcRnjy704gBMLMB2GuGOm0E2ahDaUpDkqM6IgygZSO7hUB5nYjJjwJEIXkbqAFEmUkLRvW0di90qmlHfQMnY8U5ZcS7H5dPrdJkqmyKaH/oNJag/1OGBM1flEo1EISqaaMTBee4vUTCUEpaBEawKME9IdQGraPFqnno4slfAKB3H27KT/jZfx+3ZRpwsU17/M1MlncMAEaAHCdQgLCteUwFQixQwegmy2B9cESK3xHJ+El0RKF6MFuf4cmcpVEUS5C3EIiv0E5RyB69EvfRKuT+i4SBmtt6XTHkVVBt/BqEpK5yjatB+MAAAgAElEQVRFlwaEjIPrTewwY3Q0QTgCCo0RA2nHDrlmRpD0JG+8vorEwfVMFx2MmT6TxtnXkKubSjkxnrC/j+0P/39MLB1gHBKDg5IewhOMmTad/vZXaCr0YvZsRO3sol5kyTS34jZPJXQaQHgYX1IWEPoeZ1/zQTpaFtLvpHGkjnJlahdPSxwR0q+h10hKOkMYOmghSEkHGZQQXqaqVUpiq0HtM2g1r5MGK8BGANHAEAmIaM1n8EDhJpI4sy+k6+AOkqUifpCjY+VjjFMhTWdcQq/vUSqU6Nu7mdy655ksCjgKCqkkkybOYkMUFYo0Ak1IKEIwLogEZXw0EiXcKGg3ToxXmyQ3cqOWsfu8wXVigVc3gUJmHDsOe2YVH8Y318GM0hDPzD3p4MgoI4lEIHTUP9poAg0hHhofX0MoIN/TybhyFk8aJp11AdmJ8zngNNEvG8j1dJBzPMpSkFAKX4EWUXiukmUQLsaRsQMKKCkwUhAKTYhCS42LpqdtK/s2v0adyjJt5umMO/Nc+r2xmKbZyKlz2fHUjxnfsx23r4ti/8HYTqnxhKFj916aD3QiJ56Oa1ySMocqB6i96xgXHKTec2jMtFBMNqD9epRXR/vebczveIP0jHqKQhJqiW/K7HjjRZpTHsVcjvpxjZSFQEmJMpE2JaSDlh4q7nEdC8FQQFlGGr2nDX4seIR0eDNdQwmNMWU8EeKjQLh4Q1JxmHyWnu59jDEH0R60LljK/oYzOJgYFwWR7+tE6ASaEOl6hCQoOw5ZaUhPP5P2N8aS7C3RtXU9iUI/Tpijbuxiio0T6YlzXzaOaaW4TSNCQX97O2bcUopOA77jQ1mzdfMrdHVsQwrFgndfgHA9jCkjFDgJGefPNHEe0AEtKxw2VuTk4JBch3FcacWSYHMhWt4xKveeROGYMHq4CZFmcLY5AzRMnwh7z6SwpYu000ci38e+3/0GvWUbxWQruXIe2beD2aqLjC4gjGbC/HfR2TCFfqcBl06i9QqFoowRwSGC8nBUMucbI6J4LQNKRS7/b/LLo+4LHa+3KKPjTBmR1hA9sLGKFIIMBZ52cEw0IHlGk/Y0QpTIodixp43GMbMJvRSlwi7a1yynqXwQY0p06hTNYQKjPULhUBZpNCVA4xiNEDoS0kYjTeStiTYYBY2OQ3/XDsbmduDnN0NCIyedjSoKch2dqKIh1BJHahJ1PqoUaVtKB4RKs2/1i4zVCfzxM8kaw/aVy0lkd5EShrqxkyllxpP3W5g672yKK3eSUd3sfOXXpJwUyTFnoJRP+4ZVODvW0iRzpFvGUz9pHgeoQwuJokwgylEZnVijirwTSwih8YwipQyqqOjp7KBkmkg0nIY2SZRz5Ovk4LNt0yZMb4msbCAkWfVsrejIU6ZMotXTJNCEoaJjVyfOGdNJcZDuPbsprV/DuPIB0uUcfX0dZMr7SfqtOMIj0ziGzLgZlLP7KfV2IWWIEJIxU8+g18+QEw4Gh/ETprA3kyHo7mbfuhdorm8lMetsisU0pfZdqFcfZmqhnfrWccwUi+gyLSRlChGG+MSm1vilBCc8SfXbwtBHbPiFyFGLFWAnMRUBZnDQjo+WPgoX5ODLZgCVqGP84ss42NvLgfZNtLi91Js8pvM16oBmAyIs4euAUPi0TJtHZvZF7Em1kiOBwMNREkc5uKGM/jbHltGusnaitXlTs9OxohxJ6AjKyuAKQxlDgEZJMEaiXR/jJdGuQDk+ynEjzc4IGsdN54DTwHjdS8f6l9i3aycFvxVRLjOhbx+tbgkVFihnQzY/cQ9zr3wfHaobqVRULq0GD3Ckj9EuWjs4MnKzbpwwnYOtk5H5bZiDbexY/l+EiV+jRBpZLtBQ7CPlJpk881wC0UJIT5R7kpCEqyl1bGTnc53ohE8/Dg29e0iSxfMaGT/3XWQT9RRlgtZpZ7Bz20z627tIHtzPnicfpCc1iYSXJJHfS6voxlMhsxZeTjE1jn7pEUqJlkTld6LpeZSJHiKtVrokMs3kTYKGoI/Nzz1IX6KVWZd8ADFxIVkyw14TraOwC+P2I/avxW9/HUe4hMgaARaZnid6FxGOSbNrd5mU6ad/9aP0bniefqcBU5KkC7006hyen+DggQ72Ln+UWVeMw3eaKZg0jdMXcXDbeppNFq9cIDluGmbsaRwUKcpSIJUm3TSR+jPOY//KPpLF/ex84QH6Vj1PIFL45RLjSh0kEoIZC+fTn0ySNz5l6UTaJyYSWjVOlxUHFcvJixVgJyGV9SCtNb7vI5INqEARuPWURAotfKquZ8RrQNohaJzKtPd8kq7XX6Bnxwrc3t2kymV8E+XoC/0EOpOk+cyFNMw5j+7EVA5KLzI1iCTlZDNF0Y1MJimmmsFJxC06tsf4hAovEwXBBioE18VxfYTvUTaaUBi0BIFEex4qkSBMCIqOJBASQUCIT2rKfJrPfi+Ftb8iXejEz3ZR55fwHI+x0ycSOpqdeztwSoZUzw7G6f4ops5rwhF9URb+OPWJ0YoyAjLNuLIX4fkYKcgJl2kXXkfvKkl+9+uoci+Z7B5QJZxEHU59PafNPwdnxmJ2Cw+DE0+WNROnT8WXTbTv78LtP8AkE0THahjL9EWXU54wh4NOhoLjIhrHM+uqD7N/ZYrejvXQs4/mfB++9JAIks3jOP2sZQTj59Ah6iggQQqEk0LoenzfH4jVEiIyFUuf6YvOZV/3dnJ5SOgCzVLTLEocFGWEScXrPrEtLQ7sTfg+vu8jxViM1pTRhJWcgVWPvWg9rewmaZ65kO58id62rXiFfpz+HI0qys04ZsoYSqqZrq79iCCH7MuSVFkc6lDCoX7iLLq8DCWVwpMBYydPIUxlyGkPXBcpoKCSjF18NRmRILvht6j8fsbmDmKkoqygZewkJi08n74pi9nnjkMXyyR8F5NJohJlihIC6YDQgLTCawQgjBrBRlIJv3n8N/zgB9+lINOccf2naR+7mF6nLko3VJMm/ehijU4OZGwRMzpElHMkVQGfIFJxkvXkRZpQDk6xWkkt6hiNb8okVJbgYDuqtwudywKKxnHjcRpaCdLNFNw0ZZ0gxI0KF2JIBH2Icg+uI8DLUHbSBEQ1oTTi8IvXb/UOOtK1MZEJVagCfqmPBCVc6VJ2MxS9DGWZAAOJsIRT7EPoAJL1lL0M2mgMHlpoXKNI92yj0L2fsFwmncnQ2NCAn4i8+Hp6eunv6aM+maFp4gyyykGXcri+QSUaKMoEZbzoPtIKERRxVTFqYqKBwEkgdUDClNDZTsq5TlJBFpeAZKoRv2ECZaeRokxSkoKefTvY/uR/MUttZ/68BWTmXcnmokBk+3GKWZymiTit48g7aUrCRwkfI32EEDi6jE8OWThIobOdpCrjGkO6vgm3YQwlmaEgExRwCIxAhAHpoExCK5xEgryXJO/6aGMQRiGFi2tK+KaMDMoU8/0YwE3Vo/w0ofBrClpGnppaaWTQTzLM4aAiE+uQUI/I4UXgIiCRoD+ZxBUCp6cPmcsTlookEx5NzQ0IV1As5+k72AlhmVC7JCbNpS/VRAkHVepi10P/zoS+rXhBnnNu+Ah7xi1mvz8OI6Jip6goKD+lAxJBiXx3F2H/LnzPIZlMkW5oQqfq6ZVJ+oyLlJKkKuGWchhVRiQbyLs+hjSVVd6T3V3e6MEPn5ASbcDt2UHbL+9iXN9W7vjUx7jm6qujCcsoc5+0GthJSLQ2AdL1kF4TgW6grFTsESYxwxSrECb6RwtBUSYpuAnkhBb88YaU0EihKSEpaUmIi9Kx5kYkFxVQ8NIILxXV/5LRcUw86z7iPf92PuAiMhFKN43y0hSINAcFhFoTFyKjLF1INWOMQUonrggs40VsQSgEuaapmMaJCAQFIcgbiZRuVGVtvIDmgIIUFAxIz0H4jeQFaBlpYNU+cByM4xPQELnzx32kpE8eH9OYQTZMQWmNMIaikOSEJMRBCYNBARJpJMJIQiPIu2MojGnBGePhmoAAiY4c5hHSQQoBOvI6DYVDKBoQmTqc9BSEVhijyBtBKFyUcAiEgxIVpxof42UoRxZVQmGq9ulILoUoISmIJCKZQiSbQEBgDKYS4AdUiqQIIXA9F+E1EphGwmrUWO1dIuJ/RbQmiqYgo0+SDY049eC4DiWtOagVRiukb3AnzcCXLlJIeg0opamjQMfu7TjZLqQq0TRlGqp1PEUvGTmZ6IrZOs5WLzzKXhKSDRgzibIUBELQozWh1hjtxLFugpJ0KSbT1Xu+cr8NOQ3LSYoVYCcjFROi0pGrdSTNgCNMnmocJowxUd5DIdFAWUeBwpW8wIIoJkuL2Dmislfh1R6+srd3/Bk2QlCOOiI2e1UGy4EUVDry/wYqZUvifostrUYIQpHAyFqzqCSMp9lSAJ5DSPx3bUebmj4a+GBgP1XtJKrsJoTACJcQl0raRi0MWqgonMFIhPGQMgHKQylJQgiM9CiYKPeeIxyk8HCIrtngiXZUHgUECpei8OKyIqAQaFHjIxqHBYQidjqJr3mUQT4yvw4qqWVMtSBlNTWYkTXnGH+kTfXOGN6BfoDo/J3qOZQFOKJyoSQgEY4HAsoGynEXl4u9bHjuV9Rld5IoHmSy3kfCc5i96AL6aEGbdJwl2FBJgW+IhFhgVDyviLNpxBnzo6CuOP2wjlKrmWpmbKqB7O/0PW85OqwAO4kR8vgeIxkn/jW6kic8HmgMEMc3RYPsYKclMYywOlke5AFnClPzHs/yTTTYDh5EB85FVDcXQ2YApirkajeMNOCBfUeb1vbEkF6JtV8qZUXiXlViwHQdxQ9VMo4YwEGFAqMljvTQWiGFJCE8jPCIHRwPW904urIajINCDj7OkK6qnE9U5HOg56IA3aH9Fu/DmEjrO5xwqhHylaKsg78Uh2zumZpvTe30IxKypuL9F18SqcDt7yDTt50G3Y9nCow98zyCMdPp8VooCR+j4wg9M2BRMMSCKe4np+a4h1C5doe01jISsAJstGLEsI+hideyagfGimwQg4c/hhuI3inEoBYP1RGP3NIBV5fhthlu+B585GPCDG6JjrWeAX0lintLNTVx2gVX0My55BsaCZ0mtHJrxPKREESrlg4DIuDwmxpiDW4Y5xpzuN8LUaOJHW7fcc8Ou4w++LOhRu9BSm5lIiVqjyfwkvWMO30xjbkWMqafxpYW0qctZq83hqxIEeih9+rAX9KI2M9puOdgsDZ9aDWFU7yS9wjCCrBRiBk0UB06uBxZyzqCpvGOcoR21ZpBj+r3x7Dd0CSMtZ8d8tPKgD6wrakZqittNAJkJkPd7MWUjeBgFOmHiTWp2px7wx5rqDfNUcTrDXgRnnjMMILxzX8Tv1c/iT6oZL7ACIwjmLjwQhIqj6uLBNJlt5emjIejnahMUM0ehtoPRGxxOHLvDNXKOblu+zdhqJUmDo2Ma+UNxPyNVqwAO0UZ/rY+mW/2d7htRxnUfSQqe1BExUEZ5CwwOEXWEY9Zq74cVbuOTqc7aYjXOIUUhLiEogFt6gAoCxl5gVIrsGqF2PFwUp295RiwAsxiOcG86Yy/stpYq9TVmrLedDw1xzbmHil53wkQzG8HBgiNjntFYGSUzssYU81NaOHQW+HQJd1RjRVgFssJZtCYMXR0iV9D14Si1cfhPD7fonYwEjPPVp2LKr6mCuJKAY6o+hAe1sHlVGK4tUVtBszQI/DqHxNWgFksJxox2KRV60QS/RULqqrXghk0YMOhA9OJaMtIolaLqGgSoma9asAnRYzYUfrNBPDxCKARnJbiuLACzGJ5GzniIFQjXE6YwBoNHKI9DNc7kb/mSB6v7TV/61gBZrFYTiqGhnkcjuHiFi2nFlaAWSwnmKEVfI+HSjqxU5FTYe0G8+YaWG1snGV4rBZrsVgslhHJKaOBjdC1bMsI5ERMmiOX8ROwI8tJyVFrmfYeOCKnjgB7pxtgOXU4xjCt4bD3q+Vo7oHDmRglQzK6jFJGiQAbmsPvUEb7hbScPJyIe83er6OfE5L87AhpsA7NbTr6GDUCTDiSEAFuEmUkIi73ULmecRUFOzBY3lai4UIjhCE0DlLEpUOOb0eW0YqJqsLpOHWwJC5tNEgAHcVuhvxfx1WFHAGBDjCjfO1kVAgwYwRoTb5zL3m1kZLxa2NEo3eIy0NYLG8fJs5+7hAiHUEBCVrX1ve1nNJE2XaNie4IKcBFRqVkYFBy4uNBSQdhDMn+vTiER5HkemQzSgSYxFMBbc8/Sp98mkB6GBFVajU1K+HHW1/LYjlaKhWIXQFSlynJyvzaCjBLRJTb0UFrgyM1QkcJs6LvhuNoxy0DMiocmpSKBpXFNaM74daoEGAYcLSiVeZpJY9QGs/x0NpUPbmMAKGtALO83WikMFGVYC2RxonqcQkz6mfDlqNDEGUjNkJQDg0OGinEYTylj37MEoDQEBqDcRxCE1WmHs2xZKNCgEkpSCZTfP5/foHJUyZjwhL5fIHe3mx1yIhyp43iK2k5KRAi0volAqNAiMrM2thYDksVIQzagELimLBaUXv4MrRHsb/qbwVaKToPdvIfP/oPVGBG9W03KgSYEaCMYuqUiYwZ1xJ9xmDzocXy+2JYTV8c79BkGa0MNz4ddpJ9tFJICIw2dHR0RP893saNEEaFAAPAQBiGaKWRzkCCEZtqxPL7xk6bLCcUcWzrp6JaCGz054ocPQKMoykrb7FYLCMMcwzZIePNpHSRwhn1I+KoV1A0tvCdxWI5RYglliNdEA5COO9se95mRpUGVkvkzjzaFWjLyYj1FbIcDW+LU5kgFmKaU2H6Puo1MIvFYjlliOWVMQZjNKPdjcMd0Z56ZrAnT3TRarwPR/CpWSwWy7FijEEIgY4DmIVg8JgIo2pctBqYxWKxjEJGsm5ytFgBZrFYLKORU0CCjXgTIgw2HVoTosViOVWpjH1Dx0JrQrRYLBaL5STCCjCLxWKxjEisALNYLBbLiGTEr4FZN3qLxWKJGG7Ny7rRWywWi8VykmEFmMVisVhGJNaEaDkqDOa4i+2dMKp53k4RhjvfU60PLMfEqWZCHLXJfC0nEAlGGRCC/v4sxhg81yOVTkUDak2+0EpJm2KxCIBSinQ6g3REpUTRUWMwaK1xHAejDUKKQ4530iFBK0N/fz+OI0kmUziOPO5BI1/IV2vcpVIp0LayuMVSwQowy5tjQDqSzgNd/NM//SNaG4SAT3z8E8ydO3eQdiYQdPf08J3vfIfe3h7Gjh3LHXfcgXTcYx7EBZHQy+fzgMD3PFzfjQzfJ6sQ09DdfZCvfe1ruI7L/AULuPXWDyPFsVnrtY6E1t0/upu2nW1obfjkJz7BmbPPfJsabrGMPKwAsxw1QVCmrW0nYFBKcc899/CVr34F13MHaVdGa3bv3sXBgwcJwzAyXxynBrJp8ya+8Y1vUC4H3HDD9dx8y82oUCGl804bNA+LChXbtm1DIGhpaYnO/Rgbq41GItm7by9tbW0EQUC+UIi00JNVeFssv2dGxRpY9YVdA3s7MbGUqvTx1q1beeI3T3DNe68ZLMBigaWVHrwuebTXo2adp1wuUywUyRfyFItFjDFIKdFaI8RRrMq9A2tGxkSmT8/zDr0nh2OYNg70W9SPWmu0Vhh9/JOBN203o734xuhnuFRSo3kNzHohWo4ZgcCRDqEKefiRh+k80HnUv62sa4UqjEZLOfDSRkcDvjYD3xGte0kRCa24AbGQUNE2YmDtbeg+MdG7Idp/5XOlVLUN1fZIDn2JaNshHRAha95lzbGJ1qmkHObxqrS19hhvB8OdS207xUB/VN+1GjS2aRNNQLSJeldpHW073DkMuYaVc629HgaDiq9Z9fpbiWl5C1gTouX4EJGp7MD+A9x777189rOfra6DGRMJICFEjfagqzM/IQTPPv0sK15cQTabxXVd5s6dy8UXX8y06dOq614P/OIBDhw4QLFYwnEdXn/9dX56709JJpK0tLawZ88etNJceNGFTJ8xHXR07JdefIktW7eQSqVYsmQJM06bgRAgpGT1qtVs3LgRDJxz7jnMmjUL6UqEFryy8hWeeeYZuru7UUrR0NDIokULueaaa6rrbtpoSsUSv/71rykWikydNpXFixfz0EMP8/rrr5NMJvj0pz6NGG7NS8C+fft46smnqgP3pZdexuTJk0745Wnf184LL7zA+vXrKRQKGAOpVJILL7iQSy+7FCEFxWKRhx9+GCEEjuNy3XXXkkjEEi6eNGzetJmXV74MCObNncuixYuqNaeefOJJVr68kmzs2DNt2nSuuOJypkyZQjKRjCwkwC8fe4zOzi6mTZvKeeedxxOPPcHq1atRoeLzd9xBU2PjCT9/y6nBiDchwoDaXFn0r5qrRvCpnZTU9OfChQvp6OjgwIEDvPzSy2y9ZiuzTp8VbRYPcAhxiAnjwIEDfO9732PTpk1opXFdl1K5xIYNG3juuee45ZZbuOrqq+jP9fNf996L73skk0m01mzZvIXt27eTSqW47bbbeOCBB5BSEoQBf/yxPwYibemhhx5iy5YtBEFArj/H9BnTMbFwe/TRx9iwfj1CCM5fupQgCMnnc3zrW//Kxo0bcKQTDfjxya5a9QpPPPEEd3z+DiZPngwCsv1ZfvnYL+nt6+WsxWdx77330teXJZ/PUVdXD8SeggaEkAhHYDC07+vgH//hH2lvb0dKydXXXM24cWOjYx3WhDiMO/Rh7mtjDKFSvPHG63znO98hl8tRLpejfgkVnu+xYf0GVq9ezac+/SmkdFi9ejU7d+6kr6+PxYsXM+v0mZEGHO/v/p//nFfXrsVxHJYsWUIYhOQLeX7wgx/y6qtrCYMQpRSO67BlyxZefvklrr32Wt5/0/tjj0zNE795gra2NhYsWMDatWt5/vkXcB0HP+FTDkrDnr/l+KiaEId0qDUhnuQMumBWeL3ttLS08MEPfigyxYUh//KNfyGXy1W/FwjiMRyIzGnGGO677z42bNhAGIbMmTOH97z3PVx88cW0trTS1dXFPff8F2+8/gaZdIbrrruWJUuWRL8XkilTp3DxJZdw6aWXsnjx4shEZ2DTpk2E5chZJJ/L09nZGWkQjsPmLZujFkjIZvvYtm0rQRgwc9bMSHhozV13/TuvvfoqRhvq6uq46uqruOXmW5g3bx7GwK5du/j7r/093T3dhGGIChVCRsJ53bp17O/Yj1aKyZMnM23q1IoCM4j2ve1885vfYPee3SQSCW688UZuvfXWyAHmBDllCEdQKhb5xje+QW9PL1JKzj77bP7wA3/ILX9wC5MnT6ZULvHyypX89re/JZ1JcdVVV6GUIplI8psnfhOFSwBGGzq7Olm3bh0A9Q0NzJo5EyElP7vvZ6xc+TJKaWbPns31N1zPFZdfQUNDA9m+LA8++CDPv/B85GwjJKEOcT2XTZs38bvfvUTC95k8ZQpTJk+xz6nlLWFNiJbjIigHnH/+efzud+ezcuVK2ts7eOSRR/jghz5YXSeJF6sg1hzWrFnDihUrUEpxxeVX8LGPfQzXdUHAyy+/zJ3/dif9/Vl++tP7+Jv//VU+86efYdPGTXzta18jn89zzjnn8KE/+lC1Daeddhpbt25lx442enp7aGluoevgQfr7+2NnD8Hu3bvp6e6lqbmRffvaKRQKCCFYvPgsUqkUq1ev5qWXfofruYyfMJ7PfOYznHHGGQgpyPZl+cH3f8BLL71E98Fufv3rX3Pj+25ECIFSCiEEQRjQ1NTE7bffzoSJE0gmk7Hbfxz8LQQd7R1861+/xY4dO0j4kfC68aabMEafcI/CLVu3xF6akmXLlvGJj38CL+EBcPlll3PHHXdQKORp39cOBhYtWkR9fT09PT2seOEFPvTBD9LU1ISQglfXvka5VML1XK699r24nsvGjRtZ8eIKhJAsWLCA22//LPUNkdZ53nnn8W93/hvZviw/+9nPWLr0gqqDijEGFSomTRrPLX9wC4sXn4WUEs9zq1qljW+zHCujQgMb0I7jB8DO6t52hBRIR3LzzbfQ1NSM57o8/vjj7Ni+o+pkgYmDj2N+9atfEQQBLc0t3PqRW0mkEjiug+M6nL/0fN59zrtJJBJs2rSR/mw/QTkgCIJIWCAIg7C6L60Ml1x8CcYYgqDMq6++inQkL730O3L5PK2tY0in02SzWTZv3oRWhpdffjkKwvY83n322SDgtddeQyBQoeK6667nzDPPrLa5vr6eW265BaUjgbxq1SoQAt/3AUEYhgghuO1PbmP+/Pm0jmklU5epttF1XYJyma9//Z/ZsX0HQgg+8Icf4Kb334SQDL9O9lYwMHnKZP7yL/+SL/71F/nQhz5UFV6FXIHtO3bguA4JP0EQRv3a0tzCu971LnzfJ5fLsbNtJwgISgG/fe65qlA597xzQcDzzz9PsVjEdR3+5FO3kUymMLEQnr9gPmcvOZtisUhnZxe7d++qNk0KiZ/wueY917B06VLqMhkymTR+wo9vqBPbFZZTgxG/BjbYtvsm7sqWt0Rt3woERhumTZvKVVddyX0/vY/enl7u++l9fPjWD1e3lUJW1272d+zHdV36c/18+ctfjncKQRDgei49PT2RkIoFy7nnnlv15pOOHBCMOjIJzp49m2QyiTGGDes3sHTpBezY0QbAsmUXsWnTJtauXcuO7TtYsmQJr7++DoEgk84wdtxYSsUSnZ1dKK1IJpMsXLhgYD0m9imfNHkSM2ZMZ2fbTvqz/eTzuXh9K3Lnb2ho4Ox3n01QDiJtsqafhBC8tm4dYRAgZOTQopSK+kNHfXK4AOfhXO+PuAYWC4AxrWNoamyiq6uLFStW8Mbrb9C2cyf9/VmKxSJhbP50HAfpSIw2XHDBhTz7zLNobXjhhRdYsHAB+9r3sb1tOwAzZpxGU2MTxhi2b9tePeT/+dr/wXEcwjAkDBVGa3L5HAiB1oodO3YwdepUjAHHdUinM8DDg/gAACAASURBVJy95GyU0ghHDJxHNerFPrtvleFCiEazG701IVreEkpprrrqKp577rfs27eXVatXM2vWrGG31Tpyyy6XA/bu3Vt1M6/M8h3pkEwlQRB5sTE4rqWisRgMKtBMnjKZ6dOns2HDBtp2tpHL9bNp00akEJy1+CwAtmzewiurVnHV1Vexd+9eDHDRsotIJBOE5ZCgXMZoQzKZRDoSrUx8rCj7SCUQ2/VcCsUCSmlc18FgkNKhrq4ODAPB3DWUSmV834vOJ5kkl8vx4EMPsmTJEqZNn1Z1OjohA0oscEulEt/85jd56aWXqppiIuHj+z6nn34GmzZtRIUDYQFKKWbNmklLSwsHDhzglVWv0NHRwWuvvUauP0cymeSmm25kqIoUhiHt7e0D8XhCRA4rQpDJpFFKUSqVB7YPQtLpNKl0CilF1cllNA2mlt8/VoBZ3hKOI0ln0tx22yf52t9/Da0DHnn0kWjgHzI6uZ6L67rU1dXz+c//OYlEIhIOrosgMkk6joNWmtYxrcCAF2MkSCJblVbRu5SS2XNms3HjRvbv38+ra18lm80SqpCZs2ZSLBV57LHH6O3tYdWqVeRyOZKJJMuWXYzRBsd1cD0XbTSFQoH+bH+cOUNUwwSMNgTlACEik6HjSqSMBmpjNEJIyuUyvucfEgjsupF28oUvfIFNGzfxyKOPkO/Pc/eP7uYL/88XSCQShx3Aa82LR62ZGLjvvvtYs2YNruuyYP4Crrv+OiZMmEAmU4frOnz6U5+mGJaqP5HSoa6+jgsvupBHH3mUnp4etm/fzssvv4zjONTX1zNv3jxcz4mFZBS8lUgk+PKXvozne/ieH01O4vMXsYAa0zqmehylFb7v4XleJLxO5nRglhHDqDAhHjbi3HJCqTVh1WaKEBLmzJ3D+UuXsvzZZ8nlclEqJOEg3QET4oTxE9i3bx/5WJBMnT412m9sEnz+ued5Y/16PNflYx/7GMYMZPKQUg6Y3wAZewGetegsHn3kMYJywC8e+AXGmGjAdT3GjR1HQ30Dfdk+HnroIRzp4LouY8eOIQ5VY9KkSQghKBVL/O53v2Nq7EWow2h03bBxI93d3ZTLZc4440x8z6dcDqr9IWUU1B1l3Kjppzhge/bs2Sw5ewlz58xlzZo1tLW1sWHjBh7/9ePccMMN8Q8O7evI9yFSUSKBHYnGyrrbcOtnQsALz79AuVwmlUrxJ5/6E1pbx2BMlBC5u7ubUIU4jqxmSQGDUXDRRRfx2KOP4UiHBx54gK6urrj9c0gkEoRBiOM4nD5rFhs2rEcpRXdPN4sXL8ZxnGrA+CsrX2HlyytxXIebbrqJMWPGDLp3qi9ln9O3A5uJw2I5CqpaQbyeg4Fbb/0wY8eNxXVcJPKQLOyXXnYpEGVhuPPOO+k80BmZ8YIya9e8yt3/eTdPP/UUu3btQsfpmCoIIejp6SUoBWgdeQAabZg8ZQoTJoynXC5z4MABlNLMnz8fIWDsuLFMnDSRIIhMlkIILrzwwkjjizNDLFmyhGQiicHwyMOP8PxvnycoBxhj2LNnD//9s58RKkUQhFx22aWkkqmqYNU6ElrSkdSODxWTqDGRW77RhmQqyY033YjruSilefjBh9nfceDIfawiL0YhJULAq6++ylNPPcWTTzzJ008/dchrZ9tOkslklL3fREHTSoWEYcj+/fv59re/jdbRZKBYKkaef7GWO23aNCZMmIB0JG1tO8nn8/iez0UXXQgMrGWe9a6zSCaSuK7LPffcQ3t7O4jomm7csJEf/+ePeerpp1m3bh2tra3D3TgWywnDmhAtx4aBQAWDnQni94bGBm688Sb+8+670UbHZjYTr3UJFi5cyLvetYRXXnmFLdu28sUvfpEZ02dQDsps376dIAjI1GW49rrrgMi02NLcgu/5BOWAF198kR07ttPS3MJff+mvEUJQ31DHvHnzaNu5E0lktlt6/lIw4Dgup59+OmvjQFwpJVdccUU1fkwgOOPMM7jmmmt46OGH0Ubzve99jyeefJKE77Nnzx46OjqQjsPZS5Zw3nnnDTi6xqmstFaH5DI0OtLAlFI4jhN5NRpYunQpr6x6heXPLqcvm+W7d97JX3/pS8OWWxFSxAHFAqM1Ukoee+yXOI4kVCFymLnnRz76US5adhH3/vRewiDgW9/6V6ZNm0YykaBt50664vg4x3FYu2YtP/rRj/joRz4aOcgYuPLKK7n7P+9GCoExMH78eObMnhMJaSkIVcic2XO44MILWL58OTu27+ArX/kKM2bMQCDYvmMH+VyOukyGm2++pXrekSNO1P9RaIGdN1tODPZOshwTnu8jhSSZTA5a8Kl41i276CIWL14MDDhtSCkRQCKR4CO33soll1xM0k/Q09vDutfXsXHDRkqlEtOnT+fjH/84Z521OJrxa8PYcWNZunQprudijGb//v3s2bMnEqBxrsN58+bhez6O49DQ0Mi06dOrefxmzJhBJpNBCklDfQMTJ02sah1aa7TSfOAPP8Af/dEfkclkCFXIhvXrWbN2DfsP7CeVTnHRRRfy2c99lkxdpmqKcV2XhJ8glUxVemBQP0khq2tDA4tDcMvNt9Da0oqUgvUb1rN8+fLDupCb+Die7+E4Dr4XrTelkilcL/q89pVMJrj66qtZMH8h0pFks32sXr2KNWvWUC6XWbhoIePHj8cY6O7uZt26dZSDMhVfkiuuvIKG+gYAlApZsHABqUwKKQZK5Xiex4f/6MNccsmlZOoy9Gf7WbNmDWtfW0shn2fCxAl85CMfYdmyizA6EuKu6+DGEwitNVZ+WU4UIt+fH7lKvYQnn3iSH/7wLhKJBP/4j//A2LFjhw+IHLlneXIgISyHbNu+DSEkDQ31jJ8wPio0OWQE7u3ro6urs+qhNmnipKgYY4wBDhzYz3PLn+Ng90GampqYMWMGc+fOpa6+btjD79m9l/379xOGAZl0hrnz5lbjtbJ9WQ7sPxCtu0nJzNNmVqdm+f48bbvaEAgmTJhAU3NT9IWutCUOopWC3p5eVq9eza5duzAYmhqbmL9gAaeddlq0juQ6AJSLZfa176NYLJLJZKKMEjVaWC6fY9++fWCgvqGecePGV3wfMMqQzWXZs2cvCT9BwveZNHnSIX1Y+e/evXvJ5wuEYVDjPDL8Wu+4ceNobmqmHARs2bKZDRs2ksv1M23aNE4//XRaW1spl8s888yz9PX2Mn3GdJZdvCy6hiJyXPnc7Z+js7ML3/f5m69+lenTp0fNqZhFAWOi3JbdB7tZsWIFnV2dpNNppk6dyoIFC2hsaozyUhLFAe6MTZKZTIaJEybiuK4N+3qbqKRx6+zq5C/+519QDsp84hOf5Morrqhe49E0Fo4KE6KIE8dWXsM+HaPoor0jaHB9lzNnn1mtEAwcOvBKaGxqoLGhYUC/H+IuLYBx48dxywduASJvv4pwqFZerjkuwOQpk5g8ZRIqUHEZlYG6WPV19dTX11cfTq2iWloISKaSzJ0zd0ALqrSn2paBh7qxsTFap4sFjZAiLiwpAKf6Gz/hR8mD4/bWYjCkU2lmzZo1+DyI2iWEoKG+gYY5DVFbK8HeQ13K478nTZwUDUrOkH4+ggef6zjMmTOHefPnARAGkRZUced/3403DNpPxRHnxRUv0tXVRRgGzJ07hxkzZ0R9WaMyCSIPSelIxowdw7XXXYcjJdpoHOkMtF2CMNF5TZs+LfpYmVioHbn9FsvRMioEmOX3RDyoSiGjAWg4Rbc6oAvEkQYpTVXAOc7AwFeND6o5XnX72m0Pt0+o5l00hkMDhd9s4IyPKeJ1ICFEVZghGNAsKma1IfFMVYEoao4lY8EsImeMWiEthaCaeWs44slZbXauN6NaxiVuk+s6g4Kza9ubz+e55557CFXI6lWrMQY8z+PKK68cOL/DtQsRxcRpU3XyQMSCS9Qcr1IFR4jB19dieYuMeDf62ij+I7rRj+DTPGkY2odH7NOjiF5SDNaK3so1Opwr+jDOJsezr6Galq5xAx92iK/dXFF1aomyDMe9UzO4H7ZpQ72fj6WPhtt2yGdBEPD0M8+gtcJ13cgJZulSlixZMsgl+6j2HX9uMNG1HW47+xy+rQx3zUazG73VwCzvLCP0YRKHMY8ejmFTRp0E5+64DgsWzKerq4tUKsW5557LZZddHgVZw6hbM7GMLqwAs1iOh+Ndw3mrmuYJJpVK85d/9ZeDzItam6ozwMnUVotlKNah1WI5hZFywBlGh9FCm6w4n1jhZTnJGfFrYMOlNzrcthaLZQg164MVh5XqVyN5bDhFsamkLBaLxWIZAYyKNbAouHJgpnFIbJLFYrFYRh2jwoRY8S82Ok4sa+WXxWI5BTnV3OitCdFisVgsIxIrwCwWi8UyIrECzGKxWCwjkhG/Bjbwp63IbLFYTm0GudFzmJCIUTREWg3MYrFYLCMSK8AsFovFMiIZ8SbESFXWGG2iKrwQFTiqUJPt3FT+OIUJghAhokq/EPWfdCQqVBhDVN7ectxUKlBXYxKHlCMxx5xS3jIaMcbguA5aRXWJhlatOd5xuXLPaa1xHIdisYhWCqV1XMtNVPddvTerbyMv/mhUBDILBI7jUCqVCYJyte6QFPJQATaSBfZbRYDWCqUUnu9RLBQJw5C6ujocx0GFKn6gLMeLwRCGUS2R2smAiRPkRmu171TrLCcTSkXFWWVNIdBqQobjvE8qAiwIApRS0f+liGrEVXZYK6fEyBRcFUa+AIv7vlAo8N3v3hl9JCQViTVwIwz8/1TFGINWmsuvuILTTptBIpHg/vvvp6NjP67roJQaKIZoOX4qAfa1pUgEA/XALKc4g8cgY+J/KprQW7pPBrIRKaWQjsR13Lj8T1yEdei+R/CcdcSbECvaljGGPXv2IoBQhdXKuIetKHsKYkyUqSTb18cvfv4LEHDz+2/mn77+T/T395NIJKwX51ulZpKktbYTAsuwVMasSiahSoXuE7FfFSoQAikFRhtCFcYWACCe0IshvxmpjHgNTAiJ47hAyPz586irq4tVc4kUoqYOux2YMaC0YsrUqXTs7+BLX/4S5VKZv/qrL/L447+qPlQCcUprqm8NgTHRlFbGZlljIkFWmVRZLAKBNhrpyOi5VKoqyN6KQKmYEMMwZM2aNRSLpYHJvIHK0z1aGPECzGiN0ZpUKsVH//ijTJgwIVKJ7cR3WIyGUqnImjWrEQjuuusu/ITPn//Zn6OUIp1Jn7DZ4ClLpTikxfIOcbDrIOvWvY6U5Xe6KW8rI16Aaa2rC+cSCRqU1jjIASF2klXBfaeoLA5n+7I4joPBkM/n+cY3vkEYhHzpf32JUrGE67oDGoPlmDBUEkpHnmVWm7UMh9GxJ6CsXe966/dJRQOLvGHFkR1BRrgDB4yCNbBq+43BiIpNecC2XNnOjiED2UpczyXXn4s/i8wX//z//jOO4/Bnf/5nSCmrruCWY6dqAjrFnYYsh6f2Hjmhg1O8Kx1X5hBi4Lmv9cQW0Rcj/v60hrZTjsil1k/4ACgVEoQBBsM//NM/8PWvf50wVFZ4WSwjGGOiuNhhGdlK1yBGvAnRciwIQKO1rs4Am5uaOdhzkM/d/jnOPvtsjDFks31APVJKPM8b8WYGi+WU5DBz0NH0PI9uDcyaDocQeRcYYygUiixcsJDv/+D7TJo4iT179nDdddcxf958sn1Zstls1U5vsVgsJyMjfg0MatfBaiLZzUDcg5Cj2H35GIIQDabqrrtg/nzef9NNNDU38Qe3/AF33nknf/u3f4vWGt/3o/g6eRR28tE9BTo+RnBgqGVkU81GP7hUx4BPgBhdyYhG9/BT68hhASKvTddzufiSi5GOZMeOHbzvxvchHcm3v/1tmpubaWhsIJPJ4DjOO91ci8ViOSyjW4DVYkbp6xgQQuC6LkIIOg90EgQBqVSayZMnc/XVV3PXXXeRSCZJJVMkEsmjC6h8p8//ZHxZLJbfCyPehFjb/sHmQzPItGjNOrUIGhobaTANFEtF8vk8t99+OzfffDPFYhHXddBKHV1A8wi+fSyW0UZtWFHl/2a4sKJRgvVCPMUQCBIJv5oXUUhBoVBg5syZTJ40mf7+bOR96Hq40t4eFovl5MWOUKcSBgwGRzpxaRVDUkoaG5vo7e3BGEMmU0ddXQbHtetfFovl5MYKsFOMSgxIlLQXkIJMJk0ymaDiuZRIJKKNrdnVYrGcxIyaNbDh1r8GrYGN4NN8u5FCIhxRzY1Wjf+yfWaxjCgGxsOBv5XWGGWGr1E3wuOLrAZ2ilO5gQd5HFrBZbFYRgCnjhu9xWKxWEYVI9+EiDmiGbGyndUqLMPWNY2dWeTRFhE8kbVRbZ1Vywmmdiwc+vmg8XCUYDUwy6EIQII2+tAJgeTQ1whBKz243YK4eveb/DAuSfGWz1UMHLtaN+w40FoP2pfFcqpi18AshyJg185d9PT0DPOVACFobGhgzNgxpNKpaBDVA789ETM8gznhC8xSSgr5Atu3bwegvq6eqdOmVpL0H+ZHsHnjZkqlEq7ncvrpZ+AeT4otAfv3H6CzsxOjNTNOm0EmkzmuvgqCgK0btiJklFnljNPPOPadWCyjACvALMPywC8eYOUrK3EcByEkxkSVrzGAgFQyRWNjIxdeeCEXXXgRTS1NkRA4DgFmiAKqX3v1NYrFIr7vs3jxYipOUycMAZ1dnXzzm98iCMrMnzefz/3Z/43ve0f82X0/u4+tW7eSTKb4u7/7O5qbmo75uADLlz/Lww8/TDqV5i++8BfMmjnruM6hu6ebf/mXf0FIQWNjE3/zN18lnUnbsAfLKceIXwOrHSztGtgJwkTmw4FkvlEFVxGXYjHGkM/n6e/v56f3/pRVq1Zz++2fpbmlORpEj7GvlVY4wuGBBx6gra2NpsYmFv3zIsIwxHXiOdYJ0uy0Mmit0EqjtOKQ6t1DMCo696hCtY5fx9GQmsq4BkMQBBhhjkvouK6HkAIVRuZPx3WOeA7H2s433c+Rtnmrvz+e7SxVBvkDcITxcJRgNTDLYRAopXBdj09+8hPMmTMHz/PI5XK88fobPPPsM+zZswdjDDt3tvGtb32Lr3z1K4MGnYpmVdHaAIwGrRVCyKrjREVQhmEYCRalgCg+LX4cEUbEFWYF0hnQyyrpsCqC5kgopTBGR8eWMlr/QqCVRorDLyZdc801lEoltNak0+now6Gb18TWVDmCcHIcZ+D7mn0ZbQjDEM89klZY6RVT/c1RIWreqynzzEDOy7g9SiuklId8Xnv4yrEHbVP5s1IwtaZ0hxwaplFzzjqMtq/uExHFJY6igfadRFT+GYX9aQWYZVgqAz0YPM+jpbUFowzpdJrLr7ycy6+8nFWrVvHdf/suBsPWrVtZs3oNZ73rLCDWqlwHFWpKpRKFQh5jIJVM4iU8PFdGAikeDMVQAWIgVCG+61MZGSUSow2FXIFiuYRWinQ6TSqZin9y5HUzIUT8OvTzI7Fw4cJYmJqqoDMajNZoE5Wn0VpTLpfJZrO4rkt9fT2OdIbft4kGeWNioRsHnVY+k/IInhnm0AStR1U1QDAgYFRUdbtQKFBXV4ef8PF9P3Iu0dFaYRiGGG3wk/6h+5IQlhWe51IulvETA9sYYwjCgGKxSLlUxk8kSKfTCNcZdG20MlXt1/GiCUxQCuju7iadTpNOpyMhauMT3zKVyUTlfTQx4k2INhPH28CQLP9aV0xf0eBWmfGftfgsrr3+Wn5+/y/wXI+nnnyKxYsXg4i2e2XlKyxfvpwtW7agtUZrjSMdJk+ZzLJly1h28TIAfvyjH7N5y2b2798PQDab5X/9r6+gVMhnPvOnTJ02BaMNTz31FL/97W/Zv/8AYRggpYMUgtPPOIMrLr+cRWctelNT2kCh08FmlsMi4O6772bnzp0A3PH5O2hoamDtmrX8/Oc/JwxDPvt/fZann3maV155hUK+gJCC1tZWli1bxlVXXTUwcNcct9rHErJ9/fz4x//Jnt17EFKw5F1LeP/733/kc8DE5e5q9nW404jlYef+Tn7xi1+wfv0GcrkcUgocx6Guro5z3n0O199wPYlkghdXvMijjz6KMYZFixbzhx/8QKTpxufR19PH97//fbq7u8mkM/zFF76A57qEOuTZZ55lxYoV7Nq1qyp8ZsyYwbXXXsvChQurArqtrY0f3vVDVKj45Cc/yRtvvMHzz79AX28v5553Lp+87ZPRJCYMByYeo230fRsY5EZfe5/bbPSWU5Vay1PtzS8QnPPuc3j04UcJw5Cdu3eS68+RTqd5YcUL/Md//AgVhrEpKXqIXNdl27Zt7Ny5izAIueyKy+js7GTXrt1IGQ1SSiv27t1LGAYEQYAKFA899BCPP/44hWIRz3PR2gAhYFj/xhvs3NnGbbfdxoIFC07ouRsDBw50snfv3sjtXkfmzf7+HG1tbfi+zw9/+EN2795NqMKquXTv3r389/3/zYQJE1i0aNFh91/IF/n3f7+LV199lTAMOe+887jyyiuPrZFvZh4ysGvXLr75zW/S29NbPQdjIo2ykC/wyCOPcLD7IB//xMeZOGEiXV0HKZdLBEHIDTdcTyqVqp7b1q1b2bRpE2EQsnTp0qq58d6f3MuKF1ZQLpcJwgCtNclkku3bt/PDH/6Qm266icsuvawqcPfs3oMx8LOf/Yy2trbIhKyjtUlTiRQQcnBZn1E0+FreOlaAWd6UI5mompqacd3IhFYqlunP5TAYHnnkkUjjcl3e+573sPSCpdTX1fPSSy9x/8/vp1Qq8fQzT3PZFZdx8y038573voef/OQntO9rp76+nv/xp/+DUIVMnjyJjv0dPP7rx1FK0dzcxI033siihYvQWrN8+XKeePIJ+rP9vPD8CyxYuCDSFo42MPlNUCpaD6qY9UT8bky0MCSFZOeunZx77rlcddXVpFMpHnjwAVasWEEQBNx///0sWLAA6QyYBQ2AhL5spMm8vu51PM/jogsv4qN//MckEsOY7Y7Em5yqChWPP/44XZ1dOK7LkiVLeM973sPYsePYvn0bP/nJT+jq7OL555/n+uuvZ9LkScyZM5u1a9fS09PNju07mDt/bjQRUYZXX30NFSp83+f8pefjeg4rX17J8uXL0Vpz2mkzed/7bmDc2HFs2bKF+3/xc7J9fTz44IPMnDmT0047DWMi07Qxhm3btiOlYM6cOcycOYsZM6ZTkZbV63ikUAfLKcuoMCHaTBz/f3tnGh3FdSf6363qTUsLLQhtIAGyEZsRtsEGjGMgeJskjseTjOPYyczJxPabzJkl8z68zJl3TjznzLwP8/I+zEycZF7mZbI58UvsxDt59nFs4w0MAguziV0gECBA+9Zdde/7cKuquyUhCRBY3b4/H2R1q/vWrVtV93//y/3/pxh/vFR6BN7YJiohhI6CSyoSiWEcx6Grq4vSslJisRiza2bzufs+FwROrL19LW+/8zatra0MDw/jOi61dbUAhCNh7WeyLBYsXBCs+NtPtVNdXYN0XVavWc2nPvUphBBIqbhj3R289/77dHV30tfXl3ndR51W2r1C5j1zMYSvPXpCUclUFKKUCqkk1VXVPPrYo8Fn/uiBP6K5uZlkMsnJkyd1sIglMooN9nb38vxzz7Nnzx4ikQhrblvDQ196iHAkrAXFOIEZI6/FKBPRCIYTwyQSCebOm8uMohl85StfpWhGHCUVy25YxonbT/D8C8/jJFxd0DQc4qYbb6K5uZlEIsEH2z6gYeFChNBCd+/ePSgUZTPLWLRoEdKRvPzKy0gpqaqs4tGvf53SslIsy6J8VjnRaJQf/scPGRwc4t1332PuvLm4QRQooOCBP/oiGz69QZ+/SgsEUWmBIuYZnpCxMnEYE6LhE4wYtzJzMpHAcZxgorEsi/LyWfztN/8rlhAMDg0yPDTMwOAAPb097Nu7j/b2dk8ASW0ydCS27aXG8I7p/0+6kptuvolljcuCyMG+vj66u7vp6emlubmZ3t4eLKyrVMNMoJTnv7NtnQXDxwu8WNa4LFhMCUsQi8WorKyktbWVRCKR+R0g6SR55tlnAp9fXV0dD/zhAzpg4iostqLRKI8//jighW4iMUzH2Q56ens52dbGh83NhEIhlExlB1m0eBEzZ87k7JmzbNmyhS984Qvk5eXT2tpKd3c3tmWzcOFChLBoO9nG2TMdOI5DVU0VrnQ5e+asDuSxbUpKSygsKKS7t5vDhw8FATDK860uXryY9RvWE46EcR03tX0jLXo1lyZdw9RhBJjhilAonKSDbdlEY1HCoRB2yGagf4C33nqLbdu2ce78OZykE0ToRSLaRJah+Yx0sPlve4LuwoULvPPOu+xqbqa3r9eLbBzSIeeREJawSCaTU35+lie80zU2v19+MMXMmTMzhJQ9IuJuJK7rcubsGVzHRSnF4SOH2d/SwsoVK6a8/xrtJNuxYwdvb36b02dO098/wPDwEK6rBYZAIL3zQUFxcTELFy6ks7OTZDLJ8eMnWLiogaYdTQwNDVFYWMiGDRtwvWjFRGIYgJ07drJn955RGqH0BNbg4KAOwLG1b0tIwYIFCwiFwkhHalOt8kLphdG8DONjBJjhijh7tkPnTHQVM+MzicfjdF7o5Ac/+AF79+4lGosBiuqqahobG6mvv47f//51Tpxo06HjanyVQ1iCs6c7+M53/iedFzqxQzbRSJTS0lKuu+46Zs+ezXPPP8fAwMBl5xYMwtkn+txYryXEYjEs29K5FmH8MHgABOFQmEULF3Ho0GESiWE2/W4TDQ0LiBfGJw6lv0SkdPn1r3/N66+/rrUbBaVlpcydN5eFCxu4cP4Cmzdvzsy2omD16jX8btPvyC8oYNOmTcyuqWH/3v0opaisqKS6uhopJUPDQ4AgFA4FIfCu4wZCXSkVaMelJaUkE2kLDQvi8fioEO+p8mEacpvs94Ex2tZrfGBX18Xn0gAAIABJREFUiBrhLxrLx2LB8NAwL7zwgmfqETQ2NhKOhml6u4mDBw4Si8ZYsWIFX/ziFymMFxIOhxkaHOKdt98m7AV+CHSkX9C+0h1Ivy+ff/45Lly4gCUsPvvZz7J27VqKioqwbIuOsx288MKLwZ6ryfrAUFrQ+GZMaY0dIeBnHxkZkjyW3xWlfVdSSq3NjBw/rw9hO8Q999zD3Xffw7//+7+za9cuTra18fzzL/DlLz+EUiDGeS5Htus6klBoxOcDP5rgdPtp3nnnHaSUVFdX8yd/+ifU1c4NtNuXX34p2IOGQmcIETB3bh033HADR44eYffuj9iydQvnzp8jHA5z66pb9dhZgng8TjQaYWhoiCVLlvD1r38dKfXmcMdxwIKB/kGvAjjk5edlbCXQ+TUVSuqbQV3kYTVCbWIumolD+vdoZshqtm9NMLmsDZfFybaT/OQnP2H3Rx/hSglKcccdd6Ck4syZMzqbhoBbb7mVwsJCbMtGSejo6GBgcABEWlBDRpT06Mmrs7MTy7IIR8LcsvIWikuKgy8dbz1OIjk8OQ0qeJC1gPGzfrjKxXEd/fuIfxOSHnDhW7yUCqIUxyIcDrN06VKisQgPPvjH5OfrjdjvvfcuTU1N2KHJPZZeKVKSySTS1X46v99O0vVeO3T1dNPX24cQgpqaGubPn4/wNrYmEwmOtR7zAnW8bCWuFsKRSITVa1aTSCQQCF55ZROgkyAvX748mAfLysooLNALlAMHDnLq1CmtcQkIR8Oc7zjPd//t3/jnf/5nXv1/r2ZeE5m64kY+XR2U/8P/JYcW9MaEaLgoCm1++v3rv6f5w2Zc6TI8PEx3dzft7e309PYgsAiHw/zhA/dTPrMcgJkzZ2KHbBzH4c233iQaixKPxzl+/Djvvvsu58+fx7ZtlFScaDtBVXUVlm0RiURwXZeB/gF+t+l3lJeXs2jRIoqLi0k6SVDwwosvsGHDBsLhCPv37+P111/HSbokkwkGBgdoP3WamTPLCNmhCYVaW1sbTz75PUBP2JaVCgJRSlI+s5xHHnlk/I3O4JlBAU9bk256Hsmx8YXjrFmzuPPOu3jhhRdQSvHMM8+wbNkyopHouN8HsGyb3p4efvCD7+sITpnK5uFHRBYUFLD29rXkF+TjupIDBw7w1ptvUV9fT3dPN++99z67d+1GZzHR+9cqKyspLCgEBYsXLyZeGCeRTNDX14sQgsVLllBSUhoE94QjYVbcsoJXXt7E8HCCH//4x9xzzz1UzKqgq7uLl15+iWOtrViW4LrrrpvwvAyGyZL1JsSxTDvGhHiFeOPlh5Dv278P19VZen1/kVKKcChMYbyQjRs3ctfGu4LxXrhwESXFJXR1d9Hc3Exzc7MXQSgJh0OEQ2GSySQ9PT380//4Hzzx7W9TUVHBvLnzaNnfguM4PPfc8wwMDvDEt7/N8uXL2b17NwMDA2zZsoUtW7YEXbVtvdK3hMXx48f5t3/9V574hyeQSmKNMDAoqZCkwuD7BwbYv29fkPsvMGehkxnXzqnVm5P976eZYlSa7y7DRChVsHdMD6UKAhjSzWa+oJGuZOPGjezbu5eWAy10dHTw1C+e4qtf+Sq2NYYQ9MP6UQgBQ8PD7Nu3LyO3IyJlGCotK+O+z3+euXVzOXzkMF1dXfz4xz8mFAoFfQ+Hwro/NvzsZz8D4Pa1t+O4DrNmzWLxksU0NTUFqZ1W3Hwzwqtp5t8r9959L0cOH6GlpYWDBw9y8OBBQqEwjpPUeR0FrFu3noaGhcH5p8ZVZoyN4fIZLxNHxnyYIxgNzDAmM8tnUlVVpTUZS++58veFIaCkpIR58+Zx6623MqtiFsr1ovMsQU1NNY//l8f57W9/S3t7O67jghAUxeOsWrWKkpISNv3ud3R1dRGLRXU0GoJPb/w0Q8NDHGg5wODQIIUFBYRCIVauWInrurz22mtc6LyAk3SIRmOUlZZy+x23c67jHFu3bKW3r5doLBZE1Y1EWIK8WB41NTW4rksimdCZHoTlpSpK+6wQVFRWIhBUVVWRSCRAgB0KoSTk5+cze84cIqEw8XhhxnHskM2sWbNwXJeB/v5AmM2YUUxNTQ0FBYXkxfJQUmHZFjE7yufu+xzDzw7jJB1aj7UyODio8wGOkWQ4HI4wZ/YcEsO6T1pojb6GITtEXkEeBYUFPPrYo/z2uefY1dwMaEFbEC+gfn49t625jaeffpozZ88QiUSw7ZCuRmDZgRlY72tzqK6uom5uXZBEWQ8WxPJjfOMb3+CNN97gvffeo7+vP9jTV1payvr161m1apU2LSo9fpUVlYEPTXfK+LkMl4Y41XYqe+WxBZvf3MxTv3iKkB3iiX94gvKZ5Z45yEqFPNvC7OK/BIKVNWkJQP15RRJsQLXDdhAoQNrKWXjZ4pVU9Pb1khhOEo1GKCwoDK7F8PCwTtxakE9RUZGO4BPojBVK7/+yLCsza7kr6erqQrqSeFE8EK6WbdHT00NXZxdlZWUUFBaMrXV7bblJF8v2NBZvo3a6+Ep3ftuWjVRKa2n+Z/0xkXiakBbweuOtlx3fM+f5viB/PPzPWlbqOzpxsv6QrgCQtq4ccQ7ajeEJj/Q9UuM9xRbBHq9EQptabTvEjOKijO+dOtVOLBaluLhYj73X/nO/eY7Xf/86fX193HnnnTz00EOZGTJGHDvpJOnq7EJKSV5+HgX5BcE4j9zX5TgOobB3vuYZvWJ8C8m58+f5hyeeYHBokIcffoT169bp+TD9evmLnyzGaGCGUQhSpS0yog+9m19rLKDc4FOZ5TK80hpCCIqKikYfwIJoXpTKvMrUW+mBC2LEa/8ztkVpWemYfY4XxokXxjO0grHj3glCugNBMeIZFqQljlV6L5jl1SVT0hsP/zBetojg/L3XgTBO64ewtPC20jaGC/R4+p8L2aGM9kci/GOknc94WTgAcFPHj0ajRGNRba5zU/u+LMuiuqoKhBYqiYTWTru7u9myZQuO41BYUMjKlSu9Y1506x5hOxz4Q0dtRE4XtsK7BkZwGS6TrPeBmVRSV49R94Ya41fP9DbmZ69h/jo/C8a41/xi94A1wWfS3/N8UL5QGPPzaZN2hsCTmd/JGLfJ9vUifZr0QnpUshNPW057hmzb5u233+HZZ59Fui6udHEch+uXLGDevHlBNNukHil1kd/HOgfzjF4x46WSMj4wwyeKK/ZHXMMHxdeELuuYlyJkJ9P+iElboQtyXlUut/mR6w5vIZBMJOjv69MLFAGLFy/hq1/9SrAResrJoUnVcO0wAsxguMpcdT/DFFoY/IVA4/JGCgoLkFJRVBSnvr6egsKCoMyJIXuwhAALhBw72CebyX4TYuCFGbHz3JgQDYZLx9uYXT6rnPLy8kxzqKtGxusYphljulMw2egNBsMnAX9yS/PX+dFrgZnWYJgmmFRSBoNhQsYrqWMwfFwYAWYwGMbligJkDIarSNb7wEbuLzE+MIPhKmCen6wgvepB6k1y1gdmNDCDwWAwZCVGgBkMBoMhK8l6E6LJxGEwGAya1JyXmvCkSlVDCAq0AtmfCdFoYAaDwZDTBJV/0n1hXjqwbMcIMIPBYDBkJbmzkTnbdWGDwWC4Cvg5TYUQQfmfXCFnfGBBGild7yNV+4ZUJoF0X1hGuRCDYYrw6zEJhN78O5W312TmnYmON9m5a7x2pksbk21nGo6JVBLLtjJqxCklvQKrYvwKCeP0Y3Q8gD/1paoijKojkMVTYO5oYIB3dQiK2I7c95B2kwWrEqO6GaYSf5Hk34PX+vaaquNNRTu51MZUteO1YaXfIMKvEWePfYyR743TD6GEl/bLwrIsbK8auJTS+6oYrYGNrNmWReSEAPMdk29v3kx+Qb5eAQsxSjiltK7UOwbDVKPQGcB1ba0Qjpu8tC9ftJjlxDPoRFW6JrtgG6+dqWhjsu1MnzZSPy+3jfS+pH/e8oRMujVprEX3ZI7jtz80OMTg0CCO46S+K8YQXvpLWUv2mxA90+Hw8DCbNm3yVjO2t+IY54bLITuwYfog9PIX13XxayQEVZbTGGXCVpOYaMXEMVdKjV/cTN/3E9z7/iR6JW34GdDH7ctUnM+1amP8vTiXMyYhv8q310c1bmTg5OYrgWeeFBYKRTgcRqqLXIssnvp9ckID84vsWWErWM3A2P6tNNeYfp0LV9Ew7YhGI8Hqd3KLpYk/Y02iHTmh0JhYV9CLwvHamJwmMNHaeCrO51q1oTWji3OpY+IfU6ErYLuui3SlrtuVVmI707o38VwlhEAqiUCQSCRIJpMoqV8H/ctik+FIckKASSnJz8/n7//731NaWvpxd8dgMBg+Vro6u3niiW+TSCT0ot6XiekyNnMln5XkhACzhEUymcRJOuP6EDIw2TkMVwEpZar0iAJhT9JUPb6VSzOZXZsTtTOZNiZ6NiZnLbvyNmBqzmcajomUEitkIV2ptWL/nhmrr5e4W1dJhZPUftdEIoHruiipgppuGT42v/tZ6lLJeh8YCiSSsBVGKYXrulgT2bQvIarHYLgU/NB534yDO4WNX86jegkh2Bmfmepp4XLbm+h72TQmaW0IIVCuTu2EQle75iLbeuTFBcxIw6Zv6vTbsS0bYVn6vvRD6P37My3QLVvlQE5oYJfM5dzABsMlMOEi6moxXe7l6WThmC79uEzG047G+pslBMKykFJ6fjeZGdUoyIgVALJ2jD6ZAsxgyEamYpKZqolqKrSRqSCXxoTLMOVddDGemXEjI7E5ubP/NetNiP4esIws9Nm6nDAYxmO6TNbTaMLPqTamgPT53BIWlmVrQSb8v/l5OUbvR8tGjAZmMBgMOYhUei+s8LJ9CCW8GLfsFlrpmGz0BoPBkGOoEVapXMUIMIPBYMhlckfhGkVu+MD8l8YHZjAYPsGkZ6MfGRswxvavrMdoYAaDwWDISowAMxgMBkNWkv0mxLSQ0IyilgaDwfAJI8OEOPJ9Y0Kc3gTF2nLYaWkwGAyXxHTKijLF5JQAwwgwg8FgGI1K/zV3pFluCLDcuR4Gg8FwdcihOmA+We8DSw8Vzah4msWnlWsoPxtA8FoXAPzYrtHHeWyD4SqS7gPzNa30isx6msydm9+kkjJMGgUMDw9h23amk9grzxAOh3V1bPBqm3u/WgIn6eK6Lratlf5Q6OO79ZQCKXWdE9eVhEKhSVXlveLjkrknB0tgj5W1Pq22lHQlSipdP8r2cttd9Z4asgYx8qWXNkqkfvfvOZFWBTpX0knlhADz69/of97q3jDlCOD73/9+ILAgteKTUhIOhYnGotTX17NixUrKZpZqDVkqfvvb39LWdoJYLI8HH/xjiouLP7aSI0LAiy+8yIGDB4hGozz2+GPkRfOu/nEtwVtvvMX27duxLZtHvvoI5WXloz+oQEqFZQt+9atfcfLkSZRSPPDAA8yvnz+54peGTwZjzXVpwmusj+eO/pUDJsRgNZtuSszhqJuPm2Otx1BS4TouUklsS2tcQggsT7vav38/7733Hl/5yleYN28+liU4f/4chw8fJj+/gOHhYV3Q7+O69wSc7TjL8ePHCYfDJIYTxCKxq39cBZ2dnRw9ehTbsnEd96JjIJVESIvTp0/TeqyVpOvQ39+vK+uae9vgc5FyKumuFF/zz5gnc+QmygkNzHDtycvP4/rrFwSLPIkimUhw+vRpenv76O7u5pe/+CV/93d/B55ZUUqJUhJXupe2FJzqZaOCiooK6urqiEajhMPhKWx8cgQl5D8m/MIao5horIU2wU5V7y/aD4NhEhgBZrgsSstKeezxRzPeU1Jx6tQpfvi/f8i5c+doP93OgQMHWLRkUcakaAkL6epVoHRdLMvCDtm6xLolMqOl0nxpASN8REF1WaFLs/s2fuU1YNlC+9+EFqRKKe67776gDdd1U+2qVNl1YQlc6X3PP+aIvvhb6IUlPNOfRCml/YTS8ztYFzmHq4jyChqm98c/rpKeT8SygjGW0htHfwxU6pwy+ioAqcDWf3OlxLfb25al/XUo7duz9LGkksHxlasQtgium3Rc7JBttErDZWEEmOGyEAiQeqKTKCzPc1wzu4aGhga6uruQruT8hfOp73h79FzX5UBLC+9veZ/Tp08zc+ZMFi9ewsqVKwiHwwwPDfPGG28gEERjUdasWUM0Ek0dXMHhw4c5cuQIjuPSsGAB8+bPAwUHDx5kW9N2ui50MjA4SDxeyNy587htzRri8bjuhyX4aNdHnOs4h1SStWvXYke9SdQC6Uh27NjJ7j36M7ZtU11dzU033cT1110/qmqulJKdTTv56KOP6OrqwnEc4vE4N954IytWrAgE5zVDwODAEFu3buXo0SN0dXWhUJSVlrFq1Wrq6+sJR0I4SYc333oTJ+kAcNdddyGE0AkBPAF18tRJmpubCYfDzJ49h0WLFwJaMO3du5edOz+ko6ODUNimprqGNavXUFlZqfvh+Uq3fbCNvr4+SktLWXbDMrZt3cbOnR+STCZ4+OGHmVk+0wgww2WR/T6wzB16xgd2tfHG2HEdHNfBsiwE4CoX27JRCkLhkNZqBCSTjhZySgICN+nym2d/w8FDB3FdFyEsTp7Uk2Rz84f82df+DKUUTdub6OjoQKGoq6ujrq4OS1i4ysUSNk8//TTtp9oRQtCwYAFDQ8P85Mc/Zs++PThJh3A4HERe7du3jw8+2Mpjjz5GRVUFKNi2bRs7P9xJNBJjxcoVRCIRENDT2cOT33uSs2fOknSSKKmwQzZtJ9rYsmULixcv5mtf+xqWsBC2oK+3j+/8r+/Q19NHIpnQWpel/XstLS288MIL/M03/4ay0jJdUDDdNzFOrab0ygq+Rpjh4x0LS2s4h44c4qc/+Snd3d3Ytva1udKlNdTKzp0fsmTJEh555GHyYnk072ymra0NhWKBtxBQUqFcHeyyadMmdu3aRSKR4Fvf+hZKKgYGB/nZz37KwQMHGU4MI6V+4A60HODdd97lM5/9DOvXrff6DG+++Sbtp9qpv66eXbt2sXPnTpRShEIhkslkKkrOGBMvnXF8YMHcOFasQI5MkLmxkdlwzbGwAtOTlNo+5rqScx3nOHDggDbBIcjP09F9wtv4lXASHDx8kNmzZ7Nx452sWb2aaFRrVy0tLWxvaiKWF2Pt7WsD01Xzh81IqR8527bp7+/jzJkzIKCuro7Kqkq2b9/GR7s/IplMUjO7hvXr17Nu3Tpqa2uxhMX58+f59a9/rYMg8B5iqZDSDaIhBwcH+eF//AenTp7CVS5VVVVs2LiBT33qUxTNmEEikWDXrl0888wzKLQm+fOf/5zz586TSCSoqa5hw4YNbNy4kYYFDSSGE3R3d/Or//urUVrbVUHBUGKIH/2f/6TzQicAc+fO5a6772LD+g3MKp+F6zo0f/ghO3fsBAtuWXULyWQSx3HYsnUr0pXe9YLz5y+wb98+hBCUzyynqqoKBGza9Aq7d+/BcR1qa2tZv34dq1evJhaLkUgmeOnFl2hqagqi4RzHIek4HDp0iKYdTQgEM2bMoLy8nJDnfzTCy3A5GBOi4bLo7e9jR9NOFDJYaff29LCzeSftp9pxpaR0Rgnzr5sPkIo6lIL58+fxta/9GTNmFIGAquoqXnzxRYaGhmg9fozVq1excuUtPPPMMwB82PwhG+/cSGG8ECTs2bMn8FvdsGwZefl5tLa24jouoXCIz9/3eZbesBSAzvOd/OpXv6LjXAfdPd04jkM4kgra8LU0peDYkWOcOHECV7o0Lm3ki1/8IqXeVoC1t53mu09+l97eXnbt2sXGjRtRSnHo4CGEEJSVlfHY449RXFwMQH9/P09+90mOnzhOd3c3g4OD5OVf5VB9AYcPHaa/rw8ErFy5kgcffDAIUjl37hz/+I//RMIdpvVEK2tYw4LrFlBYWEhffx9N27fzmT/4A4pmFAFw5MgRBgYGCNkh1q1bRyQaofVoKx9s/QClJPX11/Onf/qn2jQrYP++/fz0Zz+ls7OTF196kRtvujHY4hIK2UgpKSkp4d5772XJkiUA5OfnB33PEaXAcA3JehNiECY6cpNoFp9WNtDT1c0vn/4FFhYSiXQVjpP0gh104MTatWspKy3TJkRP87FtmzvuuIOiGXFc18WyLa6/7vpgo25fbx8Aefkxli1bxs4dO+nq6uLw4cMsW7YM13XZ0bQD13UpmlFEQ8MClFJUVlYSiUZwXZdNmzbhui6VlVUUF8/goS9/WUc/ur6Z0w+9SO1hU0ry/tb3AW3aWr9hPTOKZ+A6WlDOLJ/Jvffey8mTJwEtkAsLC3ns8ccIhcLk5eVRXFKMchVJJ8nZM2fp6enBtm2Gh4dxPFNqRvWESZgQ0+/liUyIbtKlpqaGb/zFXwCKqurqQFgPDQ7R1tYGSukQftdFScXM8pk0Lm9k8+bNDPQPcOToERobG0FBU9N2QnYIy7a46eabUUqxbfs2enp7CYdDPPDAA+Tn5wd9uv76BTQ2NvL+e+/T2dnJ8ePHqZtbB3jBMJbN2tvXsurWVYHtR0kCrdg8s5eBm/nSX5C5SqaCdfy/oVJBOiJtsLN4X6HRwAyXhWVbCG9iUgqUkkQiEUKhEDNmzODuu+/m5hU362gz20J5G59Dtk3ZzLLAFu+6klheTEepKVIRhcCa1WvYu3cvjuPStGMHyxqXcf7ceY4cPYqUknl184KAgUWLF/Hqa6/S19vHsWOt/OeP/pNINEJhYSENDQ2sXLGS2rm1OiKOzKAKgUAqydmzZ3Fdl/yCfG0uI7WfRgjBmtvWBNqmvwd7/vz59PT0cOxYK5vf3szZ02fo7O6ku6uHZCIBAkJ26JqEzduWTXFJMfGiOOfOnuNASwttJ9s4euQovb29XLhwwbsWSgsOL9JweeNy3nnnHVzXZfdHu1m6ZCld3d0cPnwYBNTU1BCPFwLQ1nYyyKby1M+fIhwJB2NkCYvTZ07juDoo5MSJE9TNrQsCQ/Lz87mx8cYMx8XHmlLMkPUYAWa4LMrLy/na1/4ssPwoJcnLyyNeGNerfm9S8v1LygvHtm2bkBUKNDVb6NBry7JIqiTBat22aVjUQFlZGe2n2jly+DAXzl/g6NGj9Pf3IYTgxptuJBKNAFBZUclf/9Vf89xvn6PtZBuDg4MMDAww0D/A6dOnefONN7nt9rU8/OUvjzoXIQSu4zI0OKQ3ZAuLaDSqJ2Y//Y5SgTAWABJc6fL2O2/z7LPPYls2yUSSWF6MvFgeM4qL6O3pZWBgQPsIr8Ek7bgOtrJ5+pdP88EHH+iFBYpoJEIkEmHu3LkcP35ch9hbQgebSC2gZpXPoqu7i/3799PV3cW+vfvp6+0jLz+PdevWBZvUXekExzvbcRZLWDqYR6R8ouGQFmrp++ssy6Igv4DCeGFqe4ERXIYrxAgww2XhOC6VlRV6YpMp00X6Hi0lgZHRZVZqE6/wfvh7lnx5oVxt6rAtm4aGBk6fOU1/fz/79+1n7769xGIxhBAsWrRItyl1m1XVVfz5X/w53Z3ddHV3cfDgQVpaWmhpacEO22zfto3ljY0sWbrEO36qX0IIYrFYEJTiOi7h/LDORag/QGdXJwP9AwBUVFRy6NBBXnzxRUJ2iHg8zj1338PceXMpKSnFtiz+5V/+heNtJ4JzvCImYeoPhUO8/NLLbN+2nVA4RN2cOtauXUtVTTUlxcVYlsW3/tu3Uu1JkMqlsKiQpUuX8vs3fo/jOBw7eoyPPvqISCRCOBJmwYIFqW7IlEb6l3/5l4QjEZS31wz0AkUIve+uorIirf+6f5ZlmYhDw5SR9T4wk0rq2uK6LgKBbVt6Be+mBvpi/pkgbFcS2Nv9vJXaP6ZD7C3LQkrlJf3VvqpbbrmV7du309/fzxtvvsHQ4BCO41JfP5+8vDw9oQp4+hdP09/fT35BPg899BBFxUXU1tWybt06Xn31VV5++WUi0Qjtp9tZvHhxqkKtUrhSkhcOMW/ePE6cOMHgwCD79u9neWOjDv9XemJ+6udPceTIEUpKS/jmN/+WY8eO4SQdXNflvvvu4+abbw42BJ87d46uri6k1FsFMsbH99tOMowetM8imXQy/HajkLBjxw6kUlgSHn7kYZ1z0rKQUtLX14dUMtjcrJQKQvtXrV7FW2+9hVSK1159je6ebgDmz6snXhQP+rng+gUcbz2OZVl0dnayrHFZELlo2Ra7du3iQMsBAO6+627iM+IEXmo1+rwMU0tGReax5kXGeE6z+FIYDcxwSaQyTFjapDaZhLzaxqgnT5WaeH0zkiUshNAZ4pWSGUEO1dVVVFZWcujQIU6fPkMkHMZxk3zus59LpTUScPLkKY4fb0UIi4UNC1nW2Ah4GTE835qSioL8glQWDyUR3rFRsGTxEjZv3oywBC+/9BKVFRVUVlWSTDq8+95mjnq+t/LycuLxQixhEQqFcFyHCxcu6HNCkEgk2LZtG51dnUSjURKJ4YzzvhwsYbF3zx66OjuRShIKh0ZNPLVzaj1NViKl4OzZs0FU5NDQED/96c9SUZdSpZz6QGVVJdU11bS1naT9dDtSSoQQ3LrqltQ1FLBw0ULe37KFgYF+nnv+OSoqKpg1qwKpXE4cP8FLL75Me/spiuJF3P/5+1O3gDKrSsPUYwSY4ZLwI5ssS1zS3iYhRPAveA89sVm2lZpUVSpjh0AnCF7euJxjx1q1eU9JiouLqaqu0imppItQgttuW8PJk20MDw/z1FNPsXnzZoqKijh79izt7e1IJSmJl1A/v16fR6D5qaAzDQ0NLG9czq6PdtHR0cH3vv89ampq6O8f4HhrK8ISxPJi3HXnXaBgTu0choeHsYTNa6++xr59+ygoLOR0ezvnOs4FASm9fb385tnf8IU/+gJKoc2T4TCWNckMHUIL4K0fbNX+QtvGU+My+OznPsuKm1fw8iuvkHSS/OhHP2Ju3VxC4RBtbW10dnYG12L3nt28+NLtvmVZAAAJuklEQVSLfOYPPoONjaskt666lRO/fhbQArO4uJjrr7se0NnxhYB58+Zxww1L2bp1K50XOnnyye9RWaFNyUeOHCGRSJCfn889996rhaxH+n5Bg2GqyA0Tov/SmBCvOuGI9gulh6NPiDcBh+yQduynmX59c5Jt2UFdLl9Igs51uPSGpbz62qsMDQ7hSpdbb7mVSDSi8+oJC6kkK1euZHBwkDfffJPe3l4OHjyEn3U2FApTW1vL5+/7PCUlJUFuwHA4HPjjpCMRluDBL32JkpIStm7dSldnVzDph+wQ5eWzuOuuO5lfPx8ldeaK9RvW887b7zCcGObwocMoFOFQmKqaKkqKS2j+sBmA3bt3s3HjRmzbIhzRddOcZFJrgWP4g4Q3Nv7fLMtGeZqX4zrYdmjUAkIIi7W3r+Hg4UMcPnSIgf4B9uzdgxCCSCTC0huW0tHRQfupdvr6+mj+sJl777nXa99izao1vPLyK/T392MJi0VLFhHLi3laW+o49957L8ISNG1v4sKF81y4cF4Hv1gWxSUlrF+3jltvuSUtgwiEw2FCoVDgysvqeWcak8r0kjYvYkyIBgMAX/3KV1Eo8mJ5lxRJds8993DbmtuwQ3ZG7jshBAX5BTz8yMMAFBbGCYVDQUomYQmi0SiWZeNKl1g0xi233Op9GUAFJsh169axvHE5+/bto6u7G8dJEovFmDN7DvPmz9MZPzxz4V133cVNN91EyA4RjUaDJMIF+fnc/4f3c/OKmzl08BC9vb1EohEqZlUwv76eGTOKgkAG27a5/777ufmmm2lpaSGZTJKXl0dFRSXz6+cRskJsWbiFCxcuEI/HKZ5RzKpVq6ivr8eyLUpKS1LnMdY4Krj//vvp7e0NNoJr7Xdss21lZSXRWJTHHn2UQ4cOcbz1OFJJCgoKqK2tY07tbPp6+2hqamJgcJDq6ipdDscLvLHDNgUFhQwODmJZNituXjEqYtASFkXxIv74i3/M7WtvZ//+/XR3dxOLxSgpLWHJ4iXk5eUF2yIAvvSlBxkaGiIaixIKXeO8kLnOReqBBf8XvgcyeFw0WSy00jECzHBJLF6yePRDM97D4E3Oc+bMGRGdmPpIJByhoaHBC8gQgR9MSp3FvKWlhb6+PoYGh6ivr2dWRTnafZPWEa+94tJiVt+2OtDufA1LuZ424E3IlZWVeg9Zep9kqlO1tbXU1tWm2vbOI8ja7mn5whLU1tVSW1ubGheJ3uuk0CmxAOkqLCHIL8jXAjx9+Fw1hjalBersObPHGdxM9N4uSTgSpqGhgQUNC3Qi4bRs+DNmzGDDpzekfcdbnUv4aJdORoyAuXV1zK+fj+u4Qc23zIPpDCpVVVUZ45w+1qCvQW1tbaragKk2O7WIkS8987sfEQyBDxolUs9FjkSBGgFmuDQu1TyrSE2gKXdTBv4K35/chLBQKJ7+5dOE7BBNO5qwhKCgsIBPb/j0+MfzhYcg09/mZVcXlsjoCwSWRjLsZCPP09dAfOE11ufSJm0/OtMPcrH8tv3Pp2ldF53UL3Gs9dY6va0hI7hmpOsp7fXw8DCvvPIKrivZtu0DBvr7dQWA227T/b6Itpfejl+ZIOhH+rgLoQVgoAIYDFNH9vvA0v8zPrDpiTvxRzLwTB/vvvsukUhEb3J2HG5cvjzwPwEXv8YuF58sR07mEzQ1ikm7/VIboK+knSlnxHGHhobYsmULQ0N6E3c0FmXZsmXccMNSL9nxJCNNJ3lMEz4/xYwczhF+rvTtCxlh9TlyHYwGZph+CHCSDguuX8DA4AChUIhFixaxYf0GXSZF6qKIPmMKiTHeShW5vLpkk3kmGo1yXf119Pb3ArBo4SLW3r5WB8l42yUMhumKEWCGaYdOLWXzV3/zV2lvkuljSvMzBX+fqN1rterMHvlFLBbjUa+ytr+BHBjtYzQYpiFZb0JM/2dMiLlBsJFZpswdXp3gTKEVZPWAaXXBp1FXJkSgU0p5pkLfd5f+0wiyacx4JkTvdWAy9OdJP6w+BzAamGHaEUyYnhaQMYGm+7AygkLMJHtZeOM50s9lxtSQDRgDt8FgMBiykqw3IaYXJzQmRIPB8IliZEFLz9wuvQhS/C0iCl3E0jMZKyttgsziDF9GAzMYDAZDVmIEmMFgMBiyEiPADAaDwZCVZL8PLBUbmgoPNT4wg8HwCSS9ll4qy8yIeVGRUYg2mzEamMFgMBiyEiPADAaDwZCVZL8JUamMInnGhGgwGD6pZJgQ/dcjkvnm0tyYI5k49GXTex+8+kW+bilNBmzDtSW9NpbBMCYytWdrKu1gQuk6YEpJLNsavxxODpATAsyyLJSUSOniuq4u0ufdHEZ4Ga41flFBg+FiSCkRwtK106YwoEIpXTTUdV2kK3HlpdYyyi6yW4Cl7SB3XIcf/vCHRCKRlCmRaZjo1ZCjpMrf+pOIqT5sGA/LsnBdN1VodQqRUjKUGMr5xVR2+8AsveJwHRchBJ2dnRkTR1afmyG7Uen+iI+5L4Zph/ArcguvIriYmvtECF+705Wwk24SJ+noNFLGBza9kK6kfGY5K1auIBQKeQX4MlccRogZrikKpFJY6StqcwsaxkAphVRa2FiWNTX3iRBI6WIJC1fqhf2syorMeno5hPhwx4e583iNdYHS37vcMx3Z7uW0MxVtjGxnurRxue3k+pgYDNMBX+vytb4cIrtNiGMx0aQ4mczLIwN3xioaN9GwXY02xmpnovMRXPmYTKaN6TImk2njaoyJGvs7JojI8HGTUU8vx27HrDYhXhaTWYVMpG5PlzYm285ETNTGVJkfpsu4ToZLbccXaCMEqKlmbJg25JjwglwTYOkX6GLzxmRMRf77E02UV9qGxfgaw6Wcz9VsA7R2MZbmMlbb12JMpuu45uAkYTBMV3JLgEFqArlSIZQ+AU5FG+O1M94EONnzudpt+O9d63Edq53pOq4Gg+Gakns+sJFMxelN1RBNl77kUhtT1U6OPwYGQy6S23lGDAaDwZCzGAFmMBgMhqwk902IBoPBYMhJjAZmMBgMhqzECDCDwWAwZCVGgBkMBoMhKzE+MIPBYDBkJUYDMxgMBkNWYgSYwWAwGLISY0I0GAwGQ1ZiNDCDwWAwZCVGgBkMBoMhKzECzGAwGAxZifGBGQwGgyErMRqYwWAwGLISI8AMBoPBkJUYE6LBYDAYshKjgRkMBoMhKzECzGAwGAxZiRFgBoPBYMhKjA/MYDAYDFmJ0cAMBoPBkJUYAWYwGAyGrMSYEA0Gg8GQlRgNzGAwGAxZiRFgBoPBYMhKjAAzGAwGQ1ZifGAGg8FgyEqMBmYwGAyGrOT/A+uNM5/dQFFBAAAAAElFTkSuQmCC;" vertex="1" parent="1">
          <mxGeometry x="170" width="432" height="505" as="geometry" />
        </mxCell>
      </root>
    </mxGraphModel>
  </diagram>
</mxfile>
